<svg width="181" height="181" viewBox="0 0 181 181" fill="none" xmlns="http://www.w3.org/2000/svg">
<circle cx="90.9347" cy="90.938" r="71.9922" fill="#C49E4A"/>
<path d="M100.716 80.1995C104.999 81.5517 109.465 82.1798 113.912 82.7044C114.061 82.722 114.21 82.7395 114.363 82.7576C115.098 82.8441 115.833 82.9285 116.569 83.0099C116.836 83.0403 117.103 83.0708 117.37 83.1012C117.495 83.1144 117.619 83.1275 117.747 83.1411C117.86 83.1541 117.973 83.1672 118.089 83.1806C118.188 83.1915 118.287 83.2023 118.389 83.2135C118.463 83.2318 118.538 83.25 118.615 83.2688C118.657 83.3541 118.7 83.4394 118.744 83.5273C117.813 83.7936 116.881 83.8965 115.92 83.9998C115.746 84.019 115.572 84.0383 115.399 84.0577C114.943 84.1083 114.487 84.1581 114.03 84.2078C113.303 84.287 112.577 84.3673 111.85 84.4478C111.599 84.4754 111.349 84.5026 111.098 84.5298C110.16 84.6329 109.227 84.7539 108.293 84.8959C106.321 85.1538 104.64 84.6573 102.872 83.8352C102.089 83.4711 101.294 83.1358 100.498 82.8003C100.354 82.7396 100.21 82.6788 100.061 82.6161C97.4629 81.3237 97.4629 81.3237 94.7129 81.4648C94.3013 81.6576 93.9618 81.9287 93.6164 82.2188C93.4592 82.3465 93.3018 82.4741 93.1444 82.6014C93.0624 82.6682 92.9805 82.735 92.896 82.8037C92.451 83.1615 91.9953 83.5052 91.5406 83.8504C90.5639 84.5951 89.5925 85.3454 88.6328 86.1119C88.5215 86.1984 88.4103 86.2848 88.2956 86.3739C87.7522 86.813 87.7522 86.813 87.4616 87.4366C87.4525 87.8038 87.4525 87.8038 87.599 88.1797C88.2959 88.5978 89.001 88.6939 89.7959 88.5674C90.3203 88.341 90.7633 88.0043 91.2175 87.6627C91.314 87.5906 91.4105 87.5185 91.5099 87.4442C91.8436 87.1944 92.1767 86.944 92.5098 86.6935C92.9401 86.3698 93.3708 86.0466 93.8021 85.7242C93.9184 85.6368 93.9184 85.6368 94.037 85.5476C94.729 85.0346 95.3152 84.6669 96.1995 84.7419C98.0013 85.1844 99.7067 87.0763 101.09 88.261C101.366 88.4967 101.643 88.7306 101.921 88.9646C102.726 89.6443 103.527 90.3288 104.327 91.0157C104.641 91.2854 104.956 91.5538 105.272 91.8214C106.41 92.7869 107.412 93.6507 108.189 94.9452C108.418 95.3074 108.625 95.623 108.922 95.9336C109.283 96.0278 109.283 96.0278 109.689 96.0096C109.925 96.0104 109.925 96.0104 110.165 96.0111C110.338 96.0084 110.512 96.0057 110.685 96.0029C110.868 96.0023 111.051 96.002 111.234 96.0019C111.628 96.0012 112.022 95.9984 112.416 95.994C113.038 95.9872 113.66 95.9848 114.282 95.983C115.266 95.9797 116.25 95.9732 117.233 95.9655C118.996 95.9518 120.759 95.9427 122.522 95.9356C123.141 95.933 123.76 95.9288 124.379 95.9234C124.763 95.9202 125.148 95.9181 125.532 95.9162C125.711 95.9151 125.889 95.9135 126.068 95.9115C126.311 95.9088 126.555 95.9078 126.798 95.9069C127.002 95.9053 127.002 95.9053 127.211 95.9036C127.532 95.9336 127.532 95.9336 127.79 96.1921C127.475 96.3495 127.232 96.3598 126.881 96.3891C126.743 96.4009 126.605 96.4126 126.463 96.4247C126.311 96.4372 126.159 96.4496 126.003 96.4624C125.763 96.4826 125.763 96.4826 125.519 96.5032C125.172 96.5325 124.824 96.5616 124.477 96.5903C123.926 96.636 123.376 96.6824 122.826 96.729C121.458 96.8447 120.091 96.9595 118.723 97.0737C117.662 97.1623 116.6 97.2513 115.539 97.3414C114.993 97.3877 114.447 97.4333 113.901 97.4783C113.479 97.5133 113.058 97.5493 112.637 97.5851C112.486 97.5973 112.336 97.6094 112.182 97.6219C110.496 97.7178 110.496 97.7178 109.181 98.6475C108.681 99.1289 108.172 99.482 107.565 99.8187C106.813 100.278 106.522 100.826 106.174 101.621C105.895 102.103 105.677 102.284 105.175 102.524C104.785 102.569 104.403 102.553 104.012 102.541C103.211 102.532 103.211 102.532 102.552 102.925C102.369 103.259 102.222 103.597 102.073 103.946C101.615 104.496 101.08 104.699 100.393 104.851C99.9501 104.836 99.5233 104.799 99.0843 104.746C98.2843 104.67 97.8354 104.892 97.2106 105.368C95.2757 106.514 92.817 106.034 90.7548 105.508C88.8327 104.999 86.9222 104.462 85.1435 103.558C85.0639 103.519 84.9842 103.48 84.9021 103.44C82.9212 102.467 81.2359 101.15 79.5643 99.7182C79.4953 99.6596 79.4262 99.6009 79.3551 99.5405C79.1614 99.3757 78.9685 99.2098 78.7758 99.0438C78.1334 98.5569 77.5038 98.4616 76.7166 98.3806C76.6112 98.3689 76.5057 98.3573 76.3971 98.3454C76.0468 98.3071 75.6965 98.2701 75.3461 98.2331C75.0972 98.2061 74.8484 98.179 74.5996 98.1519C73.9399 98.0801 73.2801 98.0095 72.6203 97.9391C71.9725 97.8698 71.3248 97.7997 70.677 97.7295C69.906 97.646 69.1349 97.5626 68.3638 97.4797C65.6423 97.1868 62.9219 96.8839 60.2016 96.5798C60.2016 96.4518 60.2016 96.3239 60.2016 96.1921C63.8346 96.0946 67.4679 96.0389 71.1018 95.9945C71.4489 95.9902 71.7959 95.9859 72.1429 95.9815C73.3371 95.9666 74.5313 95.953 75.7256 95.9424C76.3002 95.9372 76.8747 95.9299 77.4492 95.9206C77.8653 95.9142 78.2814 95.9102 78.6975 95.9059C78.8438 95.9028 78.9901 95.8998 79.1408 95.8967C79.9775 95.8907 80.5971 95.9259 81.2298 96.5346C81.2879 96.611 81.346 96.6874 81.4059 96.7661C81.4725 96.8515 81.5391 96.9369 81.6078 97.025C81.6764 97.1153 81.7451 97.2056 81.8158 97.2986C84.5487 100.761 88.6909 103.166 93.1055 103.749C93.7364 103.778 94.0743 103.763 94.6098 103.413C94.887 102.958 94.9489 102.789 94.836 102.266C94.5276 101.762 94.1438 101.326 93.7537 100.885C93.5437 100.586 93.5437 100.586 93.479 100.255C93.5674 99.8243 93.6989 99.6704 94.0606 99.4229C94.6925 99.4578 95.0184 99.6431 95.4902 100.053C95.612 100.157 95.7338 100.261 95.8593 100.368C95.992 100.484 96.1248 100.599 96.2576 100.715C96.4796 100.906 96.7021 101.096 96.9251 101.286C97.0691 101.409 97.2126 101.532 97.3556 101.656C98.1117 102.306 98.1117 102.306 99.0441 102.581C99.4883 102.559 99.4883 102.559 99.7953 102.314C100.059 101.929 100.135 101.701 100.135 101.232C99.6601 100.262 98.7227 99.5165 97.9133 98.8252C96.9556 97.9944 96.9556 97.9944 96.6453 97.4844C96.6453 97.0263 96.7098 96.9029 97.033 96.5798C97.5517 96.4993 97.7679 96.5544 98.2162 96.8362C98.3619 96.9534 98.5059 97.0727 98.6484 97.1936C98.7258 97.2568 98.8033 97.3199 98.8831 97.385C99.2964 97.7243 99.7016 98.0728 100.106 98.4229C100.185 98.4915 100.264 98.5601 100.346 98.6307C100.497 98.7619 100.647 98.8941 100.796 99.0273C101.373 99.5345 101.963 100.003 102.735 100.142C103.259 100.039 103.443 99.8517 103.753 99.4229C103.882 98.9875 103.882 98.9875 103.753 98.5183C103.501 98.1248 103.18 97.8122 102.848 97.4844C102.721 97.3553 102.593 97.226 102.466 97.0967C102.201 96.8296 101.936 96.5639 101.668 96.2996C101.575 96.208 101.575 96.208 101.481 96.1144C101.301 95.9372 101.122 95.7603 100.942 95.5833C100.51 95.1428 100.275 94.839 100.24 94.2132C100.248 94.0986 100.256 93.984 100.264 93.8659C101.33 93.8828 101.807 94.2061 102.59 94.8998C102.874 95.1432 103.16 95.3849 103.446 95.6267C103.519 95.6883 103.591 95.7499 103.666 95.8133C104.675 96.7393 104.675 96.7393 105.95 97.0967C106.384 96.952 106.462 96.8453 106.725 96.4506C106.699 95.749 106.54 95.4157 106.079 94.8998C105.863 94.7108 105.642 94.5279 105.417 94.3505C104.935 93.9646 104.467 93.5715 104.012 93.1551C103.578 92.76 103.136 92.3835 102.679 92.0163C101.974 91.4462 101.313 90.8367 100.65 90.2186C100.274 89.868 99.8896 89.5291 99.5 89.1938C99.2141 88.9411 98.9365 88.6803 98.6586 88.4189C97.4508 87.2337 97.4508 87.2337 95.8839 86.7377C94.9805 86.8052 94.2125 87.532 93.5517 88.0908C93.3702 88.2408 93.1886 88.3907 93.007 88.5406C92.7224 88.7775 92.4381 89.0149 92.1539 89.2524C91.0738 90.1296 90.1636 90.3854 88.7621 90.2474C87.928 90.0029 87.2575 89.4664 86.5651 88.955C86.4398 88.8644 86.3145 88.7738 86.1855 88.6804C85.7041 88.2428 85.5471 87.9352 85.4747 87.2831C85.4578 86.7363 85.7281 86.4098 86.0482 85.9827C87.0871 84.9068 88.3115 84.0138 89.4938 83.1034C89.6924 82.9498 89.8896 82.7944 90.0867 82.6388C90.2556 82.5074 90.2556 82.5074 90.4279 82.3733C90.7234 82.0833 90.8362 81.8512 90.959 81.4595C89.9233 81.4963 89.0776 81.7725 88.124 82.1622C87.8291 82.2792 87.5341 82.396 87.239 82.5126C87.0111 82.6032 87.0111 82.6032 86.7786 82.6957C85.9844 83.0077 85.1846 83.3041 84.3843 83.6C84.2354 83.6554 84.0864 83.7109 83.933 83.768C83.7944 83.8194 83.6558 83.8707 83.513 83.9236C83.3909 83.9688 83.2688 84.014 83.143 84.0606C81.8013 84.5254 80.4901 84.3067 79.1392 83.9975C78.2348 83.792 77.3282 83.6514 76.4087 83.5324C76.3059 83.5184 76.2031 83.5044 76.0972 83.4899C76.0066 83.4783 75.916 83.4667 75.8226 83.4548C75.5803 83.398 75.5803 83.398 75.1926 83.1396C75.1926 83.0116 75.1926 82.8837 75.1926 82.7519C76.3095 82.6149 77.4265 82.4977 78.5486 82.4126C82.8785 82.0811 87.0555 81.3771 91.1615 79.918C94.3806 78.7927 97.5321 79.1902 100.716 80.1995Z" fill="black"/>
<path d="M116.158 71.1208C116.246 71.1491 116.333 71.1773 116.423 71.2064C119.977 72.3553 123.457 73.6988 126.864 75.229C127.534 75.5272 128.02 75.6613 128.751 75.6475C128.958 75.6448 128.958 75.6448 129.17 75.6421C129.39 75.639 129.39 75.639 129.614 75.6359C132.496 75.6192 134.701 76.034 137.223 77.4532C137.223 77.5385 137.223 77.6238 137.223 77.7117C137.01 77.7153 136.798 77.7177 136.585 77.7198C136.467 77.7213 136.348 77.7228 136.226 77.7243C135.896 77.7145 135.587 77.6891 135.26 77.6491C131.898 77.2562 128.829 77.9308 125.669 78.9936C123.409 79.75 121.118 80.221 118.743 80.4256C118.587 80.4399 118.432 80.4543 118.271 80.469C117.12 80.5583 115.971 80.5678 114.817 80.571C114.583 80.5719 114.583 80.5719 114.344 80.5728C114.198 80.5725 114.052 80.5723 113.902 80.572C113.77 80.5718 113.638 80.5717 113.503 80.5716C113.186 80.5548 113.186 80.5548 112.927 80.4256C112.927 80.3403 112.927 80.255 112.927 80.1671C113.074 80.1366 113.221 80.1061 113.372 80.0747C119.658 78.8634 119.658 78.8634 125.592 76.5486C120.471 74.4672 115.313 72.8094 109.826 72.0255C109.683 72.0043 109.54 71.9832 109.392 71.9614C105.061 71.347 100.311 71.2628 95.9978 72.0255C95.8485 72.0505 95.6991 72.0754 95.5452 72.1012C90.1255 73.0201 82.7308 74.3336 78.5269 78.0516C78.4344 78.1331 78.342 78.2147 78.2468 78.2987C78.1767 78.3609 78.1066 78.423 78.0344 78.4871C78.1176 78.4839 78.2008 78.4806 78.2866 78.4773C79.1716 78.443 80.0567 78.4096 80.9419 78.3767C81.2699 78.3644 81.598 78.3518 81.926 78.3391C84.1623 78.2522 86.3935 78.2101 88.6315 78.2286C88.6742 78.3566 88.7168 78.4845 88.7608 78.6163C87.4812 79.533 86.2543 79.7728 84.7303 80.0137C84.5131 80.0507 84.296 80.0879 84.0788 80.1255C81.8816 80.4996 79.7035 80.7239 77.4771 80.8133C77.3567 80.8184 77.2363 80.8236 77.1122 80.8289C75.2618 80.9076 73.4111 80.961 71.5597 81.0071C71.3981 81.0112 71.3981 81.0112 71.2333 81.0154C70.1465 81.0427 69.0597 81.0692 67.9728 81.0927C63.7203 81.1691 63.7203 81.1691 59.5138 81.7502C59.3734 81.7784 59.233 81.8065 59.0884 81.8355C54.8272 82.7236 50.9893 84.7215 48.4401 88.3088C48.1655 88.6773 48.1655 88.6773 47.9232 88.955C47.8379 88.955 47.7526 88.955 47.6647 88.955C47.8784 87.161 48.3505 85.9777 49.474 84.561C49.5415 84.4721 49.6089 84.3831 49.6784 84.2915C53.0756 80.0772 59.4429 78.8105 64.4948 78.1676C64.6233 78.1512 64.7519 78.1348 64.8843 78.1179C65.5268 78.0365 66.1695 77.9576 66.8127 77.8821C70.128 77.4827 73.1146 76.5333 76.1773 75.237C85.644 71.2331 96.7487 67.7171 116.158 71.1208Z" fill="black"/>
<path d="M91.7331 53.416C92.1254 53.6331 92.1254 53.6331 92.5166 53.9168C96.2664 56.4865 100.822 57.5769 105.319 57.5838C105.454 57.5842 105.454 57.5842 105.592 57.5847C107.062 57.5866 108.483 57.4582 109.939 57.2531C111.972 56.9687 111.972 56.9687 112.679 57.2834C112.937 57.4802 113.115 57.6833 113.315 57.9392C113.403 58.0506 113.491 58.1621 113.582 58.2769C113.834 58.6083 114.081 58.9433 114.325 59.2809C114.572 59.6189 114.828 59.95 115.084 60.2815C115.136 60.3497 115.189 60.4178 115.243 60.4881C116.261 61.8075 117.285 63.1228 118.315 64.4331C118.4 64.5416 118.4 64.5416 118.487 64.6524C118.78 65.0252 119.074 65.3976 119.369 65.7694C119.667 66.1457 119.963 66.5234 120.257 66.9024C120.418 67.1081 120.58 67.3126 120.742 67.5171C120.836 67.6402 120.931 67.7633 121.029 67.8901C121.153 68.05 121.153 68.05 121.28 68.2132C121.5 68.6152 121.515 68.8598 121.457 69.3117C121.147 69.8596 120.624 70.3848 120.035 70.604C119.426 70.6397 119.023 70.6076 118.554 70.1956C118.207 69.8078 117.881 69.4086 117.564 68.9967C117.437 68.8346 117.311 68.6726 117.185 68.5105C117.09 68.3875 117.09 68.3875 116.993 68.262C116.76 67.9618 116.525 67.6632 116.289 67.3647C114.998 65.7262 113.716 64.0802 112.456 62.418C112.269 62.1733 112.082 61.9301 111.893 61.6869C111.838 61.6126 111.782 61.5382 111.725 61.4615C111.389 61.029 111.143 60.7652 110.601 60.6531C110.204 60.6627 109.815 60.7158 109.422 60.7662C103.529 61.3998 97.3285 60.6137 92.1069 57.6557C91.6793 57.4163 91.4126 57.2944 90.9148 57.2839C90.2554 57.4763 89.6705 57.7738 89.0596 58.0846C86.278 59.4541 83.3047 60.3557 80.2314 60.7823C80.1447 60.7949 80.058 60.8074 79.9687 60.8204C78.9034 60.9513 77.8307 60.931 76.7592 60.9284C76.4198 60.9277 76.0804 60.9284 75.7411 60.9292C74.7733 60.9296 73.8158 60.9294 72.8536 60.8122C72.518 60.7716 72.1853 60.7606 71.8474 60.7581C71.7331 60.7562 71.6188 60.7544 71.5011 60.7525C70.9513 60.8043 70.7366 60.9628 70.3703 61.38C70.2586 61.5246 70.148 61.6701 70.0382 61.8162C69.9114 61.9811 69.7847 62.146 69.658 62.3109C69.5912 62.3986 69.5244 62.4863 69.4555 62.5767C69.1702 62.95 68.8812 63.3204 68.5922 63.6909C68.3639 63.9838 68.1361 64.2771 67.9083 64.5704C67.5858 64.9857 67.2622 65.4003 66.9381 65.8143C66.8567 65.9185 66.7753 66.0226 66.6914 66.1299C66.5361 66.3286 66.3806 66.5271 66.2249 66.7254C66.0238 66.9829 65.8254 67.2421 65.6281 67.5024C65.5258 67.6364 65.4235 67.7703 65.3181 67.9083C65.0674 68.3559 65.0197 68.5476 65.1112 69.0532C65.3015 69.4373 65.5356 69.7875 65.7735 70.1436C66.7284 71.6379 67.9491 73.697 67.5666 75.5148C65.6425 76.0009 65.6425 76.0009 64.9819 75.9025C64.4687 75.5031 64.3002 75.0219 64.1015 74.4244C63.4183 72.5071 62.4498 70.7543 60.7733 69.5353C60.588 69.3117 60.588 69.3117 60.5138 68.9623C60.621 68.3471 60.9421 67.9869 61.3311 67.5105C61.4069 67.4146 61.4828 67.3187 61.5609 67.2198C61.7949 66.9249 62.0312 66.632 62.268 66.3393C62.4053 66.1676 62.5425 65.9958 62.6795 65.8239C62.9369 65.5012 63.1951 65.1793 63.4538 64.8577C63.8986 64.3031 64.3308 63.7393 64.7628 63.1746C65.1774 62.6333 65.5967 62.0956 66.0158 61.5577C66.4973 60.9396 66.978 60.321 67.4547 59.6992C67.8934 59.1268 68.3332 58.5552 68.7781 57.9876C68.8956 57.8372 68.8956 57.8372 69.0154 57.6838C69.3828 57.2683 69.588 57.0524 70.1558 56.9947C70.8288 57.0471 71.4823 57.166 72.1463 57.2849C78.3491 58.3234 84.3035 57.0922 89.6595 53.8296C90.4268 53.3721 90.8593 53.1516 91.7331 53.416Z" fill="white"/>
<path d="M62.7866 98.5182C64.8229 98.4674 64.8229 98.4674 65.5005 98.7767C66.1103 99.3619 66.2706 100.124 66.5101 100.909C67.0494 102.595 67.7036 104.009 68.8605 105.368C68.9356 105.461 69.0108 105.555 69.0882 105.652C71.7343 108.83 76.2419 110.219 79.9349 111.789C82.6898 112.96 85.4097 114.168 88.0551 115.574C88.1753 115.637 88.1753 115.637 88.2979 115.702C88.681 115.905 89.0626 116.11 89.4426 116.318C90.4037 116.856 90.4037 116.856 91.4762 116.869C91.8001 116.709 92.0755 116.551 92.3728 116.352C92.5441 116.244 92.7157 116.136 92.8877 116.029C92.9751 115.975 93.0625 115.92 93.1525 115.864C93.9002 115.414 94.6942 115.046 95.4825 114.672C95.5716 114.63 95.6608 114.587 95.7527 114.543C97.2317 113.844 98.7439 113.232 100.264 112.629C109.303 109.229 109.303 109.229 115.255 102.007C115.497 101.329 115.688 100.639 115.875 99.9443C115.908 99.8282 115.94 99.7121 115.974 99.5925C116.001 99.4907 116.028 99.3889 116.055 99.284C116.16 99.0351 116.16 99.0351 116.547 98.7767C116.852 98.7355 116.852 98.7355 117.207 98.7232C117.398 98.7157 117.398 98.7157 117.592 98.708C117.724 98.704 117.857 98.7 117.993 98.6959C118.194 98.6884 118.194 98.6884 118.399 98.6808C118.729 98.6686 119.06 98.6575 119.391 98.6474C119.042 102.805 117.231 106.69 114.026 109.41C111.349 111.609 108.022 112.902 104.873 114.265C104.254 114.533 103.636 114.802 103.017 115.07C102.758 115.183 102.498 115.295 102.239 115.408C96.4677 117.682 96.4677 117.682 91.4762 121.263C91.0931 121.351 90.9388 121.373 90.5716 121.263C90.2424 121.01 89.9529 120.727 89.6529 120.439C86.8687 117.911 82.9216 116.719 79.4998 115.338C71.266 112.014 71.266 112.014 68.2143 109.374C68.1074 109.282 68.0004 109.191 67.8903 109.097C65.1612 106.71 63.2424 103.447 62.7866 99.8105C62.7784 99.5791 62.7754 99.3474 62.7785 99.1159C62.7797 99.003 62.7808 98.89 62.782 98.7736C62.7835 98.6893 62.785 98.6051 62.7866 98.5182Z" fill="white"/>
<path d="M71.2039 82.9941C71.3725 83.0042 71.5412 83.0144 71.7149 83.0248C72.675 83.0891 73.6061 83.199 74.5478 83.398C74.5478 83.4833 74.5478 83.5686 74.5478 83.6564C73.9985 83.7222 73.4491 83.7878 72.8998 83.8533C72.4157 83.9111 71.9316 83.9691 71.4475 84.0272C70.1639 84.1809 68.88 84.3303 67.595 84.4712C67.226 84.5122 66.857 84.5533 66.4881 84.5945C66.2536 84.6203 66.0192 84.6456 65.7846 84.6704C63.6967 84.8914 61.7908 85.3093 59.8233 86.0634C59.6759 86.1193 59.5284 86.1752 59.3765 86.2327C59.071 86.349 58.7658 86.4659 58.4608 86.5834C58.0155 86.7544 57.5689 86.9217 57.1221 87.0887C55.6495 87.6474 54.3103 88.1887 53.0952 89.2134C53.0268 89.271 52.9584 89.3285 52.888 89.3878C52.1283 90.0348 51.4294 90.6859 50.8982 91.5396C52.4035 91.8328 53.909 91.8734 55.4375 91.9273C56.9765 91.9822 58.5059 92.0434 60.0356 92.2297C61.1576 92.3636 62.1874 92.4329 63.1753 91.7981C63.6531 91.3127 64.0564 90.7905 64.4676 90.2473C64.6805 89.9866 64.8968 89.7292 65.1138 89.4719C65.3413 90.1544 64.8958 90.8172 64.5908 91.4386C64.1041 92.3485 63.4814 93.0563 62.5291 93.4781C62.0655 93.5501 62.0655 93.5501 61.5667 93.5605C61.4749 93.5631 61.3831 93.5657 61.2885 93.5684C60.9861 93.5764 60.6837 93.5808 60.3812 93.5851C60.1664 93.59 59.9516 93.5951 59.7368 93.6003C59.1696 93.6136 58.6025 93.6238 58.0353 93.6334C57.5849 93.6416 57.1346 93.6519 56.6842 93.6623C53.8938 93.7267 51.1046 93.7511 48.3135 93.7366C48.3319 93.4879 48.3509 93.2392 48.3702 92.9905C48.3808 92.852 48.3913 92.7135 48.4021 92.5708C48.4809 91.8247 48.7814 91.1828 49.0889 90.5058C49.1434 90.3845 49.1979 90.2632 49.254 90.1383C50.374 87.8788 52.4082 86.4725 54.6459 85.4657C54.8227 85.3861 54.8227 85.3861 55.003 85.3048C60.1693 83.0065 65.6077 82.652 71.2039 82.9941Z" fill="black"/>
<path d="M138 83.1396C138 83.2675 138 83.3954 138 83.5273C137.881 83.5248 137.763 83.5224 137.641 83.5199C136.473 83.5063 135.347 83.5792 134.187 83.7373C133.96 83.7645 133.96 83.7645 133.729 83.7923C131.225 84.1253 128.811 84.9283 126.411 85.6881C122.38 86.9597 118.301 88.19 114.092 88.6966C113.995 88.7094 113.898 88.7223 113.798 88.7355C112.824 88.8518 111.848 88.8499 110.869 88.8498C110.572 88.85 110.276 88.8524 109.98 88.8548C108.375 88.8612 106.813 88.7536 105.288 88.212C105.14 88.1607 105.14 88.1607 104.99 88.1083C103.447 87.5571 102.324 86.8755 101.168 85.7242C101.211 85.6389 101.254 85.5536 101.298 85.4658C101.763 85.5392 102.174 85.6782 102.61 85.8559C106.491 87.4225 110.421 86.9262 114.448 86.2869C114.723 86.2435 114.998 86.2013 115.274 86.1594C117.627 85.7987 119.896 85.2443 122.19 84.6132C124.075 84.0957 125.964 83.6433 127.879 83.2526C127.995 83.2286 128.111 83.2046 128.231 83.1798C131.382 82.5315 134.898 81.9642 138 83.1396Z" fill="black"/>
<path d="M53.0271 43.1159L50.892 44.9109L49.8342 43.6527L53.5992 40.4874L59.2247 47.1786L57.5948 48.5489L53.0271 43.1159ZM43.8009 49.7799C44.3232 49.1453 44.9507 48.6834 45.6835 48.3941C46.4109 48.1111 47.1667 48.029 47.9508 48.1475C48.7361 48.2777 49.4588 48.6146 50.119 49.158C50.7792 49.7014 51.2455 50.3432 51.5179 51.0835C51.785 51.8302 51.8496 52.5877 51.7118 53.356C51.5688 54.1307 51.2361 54.8354 50.7138 55.4699C50.1915 56.1045 49.5666 56.5632 48.8391 56.8461C48.1064 57.1355 47.3532 57.2144 46.5796 57.0831C45.8008 56.9581 45.0813 56.6239 44.4211 56.0805C43.7609 55.5371 43.2914 54.8926 43.0126 54.147C42.7403 53.4068 42.673 52.6525 42.8107 51.8842C42.9485 51.1159 43.2786 50.4145 43.8009 49.7799ZM45.3007 51.0144C44.8576 51.5529 44.6836 52.13 44.7787 52.746C44.8686 53.3683 45.2084 53.9222 45.7981 54.4076C46.3942 54.8982 47.003 55.1252 47.6246 55.0885C48.2474 55.0634 48.7803 54.7817 49.2235 54.2433C49.672 53.6985 49.8545 53.1175 49.771 52.5004C49.6823 51.8898 49.3366 51.3365 48.7341 50.8405C48.138 50.3499 47.5286 50.1171 46.9058 50.1421C46.2842 50.1788 45.7492 50.4696 45.3007 51.0144ZM42.2736 58.6513C43.0409 59.0471 43.6377 59.5652 44.064 60.2054C44.4978 60.8496 44.7284 61.5524 44.7559 62.3139C44.787 63.0866 44.6084 63.8492 44.2202 64.6017C43.7445 65.524 43.0937 66.1878 42.268 66.5932C41.4424 66.9987 40.5519 67.0951 39.5966 66.8826L40.6699 64.802C41.0745 64.8145 41.4358 64.7207 41.754 64.5205C42.0683 64.3277 42.3187 64.0505 42.5052 63.689C42.8059 63.1061 42.8466 62.5293 42.6273 61.9584C42.408 61.3876 41.959 60.9271 41.2802 60.5769C40.6014 60.2267 39.9659 60.1278 39.3736 60.2799C38.7813 60.4321 38.3348 60.7996 38.0342 61.3825C37.8477 61.744 37.767 62.1087 37.792 62.4766C37.8133 62.8519 37.9462 63.2007 38.1909 63.5231L37.1176 65.6037C36.3907 64.9485 35.9532 64.167 35.805 63.2591C35.6642 62.3551 35.8316 61.442 36.3074 60.5197C36.6956 59.7672 37.2099 59.1777 37.8502 58.7514C38.494 58.3362 39.2004 58.1168 39.9693 58.0931C40.7382 58.0694 41.5063 58.2554 42.2736 58.6513ZM31.0614 73.4098L35.5692 71.6157L31.8507 70.5789L32.4226 68.5278L40.8432 70.8756L40.2713 72.9268L36.5768 71.8967L39.4887 75.7337L38.8164 78.1447L35.5998 73.7315L30.3624 75.9168L31.0614 73.4098ZM28.9455 83.4006C28.9998 82.7637 29.1519 82.2018 29.4018 81.7149C29.6516 81.2279 29.9922 80.8487 30.4237 80.5772C30.8544 80.314 31.3558 80.1985 31.928 80.2306L31.7353 82.4888C31.4099 82.4944 31.1522 82.5849 30.9623 82.7603C30.7806 82.9365 30.6767 83.1776 30.6506 83.4836C30.6238 83.798 30.673 84.0521 30.798 84.2461C30.9314 84.4408 31.1263 84.549 31.3827 84.5709C31.5978 84.5893 31.782 84.53 31.9353 84.3931C32.0879 84.2645 32.2189 84.0965 32.3282 83.8892C32.4369 83.6902 32.5657 83.4012 32.7147 83.0223C32.9363 82.4746 33.1492 82.0304 33.3533 81.6895C33.5573 81.3487 33.8398 81.0645 34.2009 80.837C34.5619 80.6095 35.0154 80.519 35.5613 80.5656C36.3719 80.6348 36.9797 80.9824 37.3845 81.6085C37.7976 82.2353 37.964 83.0202 37.8835 83.9632C37.8017 84.9227 37.5041 85.6764 36.9908 86.2241C36.4857 86.7726 35.822 87.0326 34.9995 87.0041L35.1954 84.7087C35.478 84.7161 35.706 84.6314 35.8794 84.4546C36.0611 84.2785 36.1646 84.0415 36.19 83.7437C36.2119 83.4873 36.1592 83.2745 36.032 83.1053C35.9131 82.9369 35.7254 82.8417 35.469 82.8199C35.1877 82.7959 34.9572 82.9095 34.7775 83.1608C34.5977 83.4121 34.3929 83.8112 34.1629 84.3582C33.9247 84.9044 33.7039 85.3438 33.5006 85.6764C33.2965 86.0173 33.0181 86.3018 32.6654 86.53C32.3126 86.7582 31.8757 86.8501 31.3546 86.8056C30.8583 86.7633 30.4184 86.5966 30.0349 86.3056C29.6508 86.0229 29.3593 85.6314 29.1603 85.1312C28.9613 84.631 28.8897 84.0541 28.9455 83.4006ZM30.2924 93.3381L30.5168 96.1185L28.8783 96.2507L28.4827 91.3478L37.1962 90.6448L37.3675 92.7673L30.2924 93.3381ZM36.7049 101.082L34.9886 101.507L35.6751 104.275L34.0797 104.671L33.3932 101.903L31.5319 102.365L32.3083 105.495L30.6525 105.906L29.3634 100.709L37.8481 98.6041L39.1372 103.801L37.4813 104.212L36.7049 101.082ZM42.9917 113.85L36.4135 113.477L33.7762 114.656L32.9068 112.713L35.5442 111.533L39.6516 106.381L40.6379 108.587L37.9872 111.627L42.0156 111.667L42.9917 113.85ZM42.8504 127.028L44.6253 129.18L43.3573 130.226L40.2274 126.431L46.9712 120.869L48.3261 122.512L42.8504 127.028ZM51.4668 135.927L48.975 133.821L47.5788 134.663L45.8763 133.224L53.935 128.589L55.8181 130.181L52.591 138.899L50.8695 137.444L51.4668 135.927ZM52.1094 134.318L53.3478 131.175L50.464 132.928L52.1094 134.318ZM70.7397 139.152L64.7971 145.957L62.4907 144.806L63.8118 139.035L59.9503 143.538L57.6438 142.387L59.564 133.575L61.6031 134.593L59.887 140.848L64.1212 135.849L66.2159 136.895L64.7116 143.256L68.6895 138.129L70.7397 139.152ZM73.658 147.579L71.3571 150.643L70.0507 150.275L71.7164 147.031L73.658 147.579ZM89.2406 150.125L85.9783 150.078L85.4333 151.615L83.2045 151.583L86.492 142.887L88.9573 142.922L91.9952 151.708L89.7415 151.676L89.2406 150.125ZM88.7162 148.473L87.6786 145.258L86.5621 148.443L88.7162 148.473ZM99.5377 151.148C98.9086 151.262 98.3265 151.261 97.7913 151.147C97.2561 151.032 96.8013 150.802 96.4268 150.456C96.0605 150.109 95.8184 149.655 95.7004 149.094L97.9309 148.692C98.021 149.005 98.1755 149.23 98.3943 149.368C98.6117 149.497 98.8715 149.535 99.1738 149.48C99.4843 149.424 99.7169 149.311 99.8716 149.139C100.025 148.96 100.079 148.744 100.033 148.49C99.9947 148.278 99.8895 148.116 99.7174 148.003C99.5534 147.889 99.3572 147.807 99.1285 147.755C98.9081 147.702 98.5956 147.653 98.1909 147.608C97.6044 147.536 97.1201 147.446 96.7378 147.338C96.3556 147.23 96.0076 147.031 95.694 146.742C95.3803 146.452 95.1749 146.038 95.0777 145.499C94.9334 144.698 95.1108 144.021 95.6099 143.467C96.1075 142.905 96.822 142.54 97.7534 142.372C98.7011 142.201 99.5062 142.292 100.169 142.645C100.83 142.99 101.254 143.563 101.44 144.365L99.1732 144.773C99.1068 144.499 98.9656 144.3 98.7497 144.179C98.5323 144.05 98.2766 144.011 97.9825 144.064C97.7292 144.11 97.5375 144.216 97.4073 144.383C97.2756 144.542 97.2326 144.748 97.2782 145.001C97.3283 145.279 97.4981 145.472 97.7875 145.58C98.0769 145.688 98.5156 145.782 99.1036 145.862C99.693 145.949 100.175 146.048 100.549 146.158C100.931 146.266 101.278 146.461 101.59 146.742C101.903 147.023 102.105 147.421 102.198 147.936C102.286 148.426 102.24 148.894 102.059 149.34C101.886 149.784 101.584 150.168 101.153 150.49C100.721 150.813 100.183 151.032 99.5377 151.148ZM115.984 146.197C115.411 146.48 114.852 146.641 114.306 146.679C113.76 146.718 113.259 146.622 112.804 146.394C112.355 146.161 111.997 145.792 111.728 145.286L113.76 144.282C113.933 144.558 114.144 144.731 114.393 144.803C114.637 144.867 114.897 144.831 115.173 144.695C115.456 144.555 115.648 144.382 115.749 144.174C115.846 143.96 115.838 143.737 115.724 143.506C115.629 143.312 115.483 143.186 115.286 143.125C115.097 143.061 114.886 143.036 114.652 143.05C114.425 143.06 114.111 143.099 113.71 143.168C113.126 143.262 112.636 143.31 112.239 143.311C111.842 143.313 111.452 143.219 111.071 143.027C110.689 142.836 110.377 142.495 110.134 142.004C109.774 141.275 109.757 140.575 110.083 139.904C110.405 139.226 110.991 138.678 111.839 138.258C112.703 137.832 113.502 137.696 114.236 137.852C114.967 138 115.533 138.434 115.934 139.152L113.869 140.173C113.729 139.927 113.538 139.776 113.297 139.719C113.052 139.654 112.796 139.689 112.528 139.821C112.297 139.935 112.143 140.09 112.064 140.287C111.981 140.476 111.997 140.685 112.111 140.916C112.236 141.169 112.453 141.308 112.761 141.331C113.069 141.355 113.516 141.324 114.103 141.237C114.694 141.158 115.184 141.12 115.574 141.122C115.971 141.12 116.359 141.211 116.737 141.394C117.114 141.578 117.419 141.904 117.651 142.373C117.872 142.82 117.957 143.283 117.906 143.761C117.863 144.236 117.679 144.688 117.354 145.118C117.029 145.547 116.572 145.907 115.984 146.197ZM120.6 135.535L121.642 136.965L123.947 135.286L124.914 136.614L122.609 138.293L123.739 139.843L126.346 137.944L127.35 139.323L123.022 142.476L117.875 135.41L122.203 132.257L123.207 133.636L120.6 135.535ZM127.662 129.92L128.924 131.158L130.922 129.123L132.095 130.274L130.097 132.31L131.466 133.653L133.725 131.351L134.943 132.546L131.192 136.368L124.953 130.244L128.704 126.423L129.921 127.618L127.662 129.92ZM142.555 122.472L141.378 124.246L134.916 124.232L139.408 127.214L138.231 128.988L130.947 124.154L132.125 122.38L138.607 122.408L134.094 119.412L135.271 117.638L142.555 122.472ZM148.898 108.694C148.673 109.484 148.282 110.158 147.725 110.716C147.171 111.266 146.511 111.643 145.745 111.847C144.973 112.041 144.176 112.021 143.353 111.786C142.531 111.551 141.847 111.149 141.302 110.579C140.759 110.001 140.398 109.332 140.217 108.573C140.039 107.805 140.063 107.026 140.289 106.236C140.514 105.446 140.904 104.776 141.458 104.226C142.015 103.668 142.674 103.295 143.435 103.107C144.199 102.91 144.993 102.93 145.815 103.164C146.637 103.399 147.325 103.803 147.878 104.375C148.423 104.945 148.786 105.61 148.966 106.369C149.147 107.129 149.124 107.904 148.898 108.694ZM147.03 108.161C147.222 107.49 147.151 106.891 146.818 106.365C146.487 105.83 145.954 105.458 145.22 105.248C144.478 105.036 143.829 105.071 143.273 105.353C142.712 105.624 142.336 106.095 142.145 106.766C141.951 107.444 142.016 108.05 142.338 108.582C142.664 109.107 143.201 109.476 143.952 109.69C144.694 109.902 145.346 109.873 145.907 109.601C146.462 109.319 146.837 108.839 147.03 108.161ZM151.925 92.094L151.722 94.2136L146.014 97.2442L151.382 97.7589L151.179 99.8785L142.477 99.0441L142.68 96.9244L148.412 93.8963L143.02 93.3792L143.223 91.2595L151.925 92.094Z" fill="#121212"/>
</svg>
