<svg width="366" height="79" viewBox="0 0 366 79" fill="none" xmlns="http://www.w3.org/2000/svg">
<path d="M61.2798 31.0696C66.227 32.6315 71.3858 33.357 76.5232 33.9631C76.6949 33.9833 76.8665 34.0036 77.0434 34.0245C77.8924 34.1244 78.7417 34.2219 79.5914 34.3159C79.9001 34.3511 80.2089 34.3862 80.5176 34.4214C80.6611 34.4366 80.8047 34.4518 80.9525 34.4675C81.0829 34.4825 81.2133 34.4976 81.3476 34.5131C81.4619 34.5256 81.5761 34.5382 81.6939 34.5511C81.78 34.5722 81.8662 34.5933 81.955 34.615C82.0043 34.7135 82.0535 34.812 82.1043 34.9136C81.0289 35.2211 79.9525 35.3401 78.8423 35.4594C78.6415 35.4816 78.4407 35.5039 78.2399 35.5262C77.7132 35.5847 77.1863 35.6423 76.6594 35.6996C75.8197 35.7911 74.9801 35.8838 74.1405 35.9769C73.851 36.0088 73.5615 36.0402 73.272 36.0716C72.1883 36.1907 71.1104 36.3304 70.0325 36.4945C67.7543 36.7924 65.8119 36.2188 63.7703 35.2693C62.8655 34.8487 61.9472 34.4613 61.0278 34.0739C60.8614 34.0036 60.695 33.9334 60.5235 33.8611C57.5219 32.3682 57.5219 32.3682 54.3453 32.5312C53.8699 32.7539 53.4778 33.067 53.0787 33.4021C52.8971 33.5496 52.7154 33.697 52.5335 33.8441C52.4388 33.9212 52.3442 33.9983 52.2467 34.0778C51.7326 34.491 51.2062 34.888 50.6809 35.2868C49.5528 36.147 48.4306 37.0137 47.3221 37.8991C47.1936 37.999 47.065 38.0989 46.9326 38.2018C46.3048 38.709 46.3048 38.709 45.9693 39.4293C45.9587 39.8535 45.9587 39.8535 46.1279 40.2876C46.9329 40.7706 47.7474 40.8816 48.6656 40.7355C49.2714 40.474 49.7831 40.085 50.3077 39.6905C50.4192 39.6072 50.5306 39.5239 50.6455 39.4381C51.0309 39.1496 51.4158 38.8603 51.8005 38.5709C52.2976 38.197 52.795 37.8236 53.2933 37.4513C53.4276 37.3503 53.4276 37.3503 53.5646 37.2473C54.3639 36.6547 55.0411 36.23 56.0625 36.3165C58.1439 36.8277 60.1138 39.0132 61.712 40.3816C62.0307 40.6538 62.351 40.9241 62.6713 41.1943C63.6016 41.9794 64.527 42.7702 65.4503 43.5636C65.813 43.8752 66.177 44.1852 66.5419 44.4943C67.8571 45.6095 69.0141 46.6073 69.9117 48.1026C70.1765 48.5211 70.4161 48.8855 70.759 49.2444C71.1753 49.3532 71.1753 49.3532 71.6449 49.3322C71.9168 49.333 71.9168 49.333 72.1942 49.334C72.3946 49.3308 72.595 49.3277 72.7954 49.3244C73.0067 49.3237 73.2181 49.3233 73.4295 49.3233C73.8844 49.3224 74.3392 49.3192 74.794 49.3142C75.5128 49.3062 76.2315 49.3035 76.9503 49.3015C78.0866 49.2976 79.2229 49.2902 80.3592 49.2813C82.3955 49.2654 84.4319 49.2549 86.4683 49.2467C87.1833 49.2436 87.8983 49.2388 88.6133 49.2326C89.0573 49.2289 89.5012 49.2265 89.9452 49.2243C90.1516 49.223 90.358 49.2212 90.5645 49.2189C90.8454 49.2157 91.1264 49.2146 91.4073 49.2135C91.6435 49.2117 91.6435 49.2117 91.8845 49.2098C92.2553 49.2444 92.2553 49.2444 92.5538 49.543C92.1901 49.7248 91.909 49.7367 91.503 49.7705C91.3438 49.7841 91.1845 49.7977 91.0205 49.8117C90.845 49.8261 90.6695 49.8404 90.4887 49.8552C90.2123 49.8785 90.2123 49.8785 89.9303 49.9023C89.5289 49.9362 89.1275 49.9698 88.7261 50.003C88.0904 50.0557 87.4548 50.1094 86.8193 50.1632C85.2396 50.2969 83.6598 50.4294 82.08 50.5613C80.8541 50.6637 79.6282 50.7665 78.4024 50.8705C77.7716 50.924 77.1408 50.9767 76.5099 51.0287C76.023 51.0691 75.5362 51.1107 75.0493 51.1521C74.8759 51.1661 74.7026 51.1801 74.5239 51.1946C72.577 51.3053 72.577 51.3053 71.0576 52.3793C70.48 52.9354 69.8926 53.3432 69.1916 53.7321C68.3221 54.2626 67.9865 54.896 67.5839 55.8145C67.2617 56.3709 67.01 56.5794 66.4299 56.8577C65.9802 56.9093 65.5381 56.8903 65.0864 56.8763C64.1618 56.8663 64.1618 56.8663 63.4 57.3207C63.1886 57.7059 63.0196 58.096 62.8472 58.4997C62.3187 59.1345 61.7006 59.3698 60.9066 59.5447C60.395 59.5281 59.902 59.4846 59.3948 59.4237C58.4707 59.3358 57.9522 59.592 57.2305 60.1418C54.9954 61.4663 52.1554 60.9114 49.7733 60.3041C47.553 59.7163 45.3461 59.0956 43.2916 58.0519C43.1995 58.0068 43.1075 57.9617 43.0127 57.9152C40.7244 56.7914 38.7777 55.2697 36.8469 53.6161C36.7671 53.5483 36.6874 53.4806 36.6052 53.4108C36.3814 53.2204 36.1587 53.0288 35.936 52.837C35.194 52.2747 34.4668 52.1645 33.5575 52.0709C33.4357 52.0575 33.3138 52.0441 33.1883 52.0303C32.7838 51.986 32.379 51.9433 31.9743 51.9005C31.6869 51.8694 31.3995 51.8381 31.1121 51.8068C30.35 51.7239 29.5879 51.6423 28.8257 51.561C28.0774 51.481 27.3292 51.3999 26.581 51.3189C25.6903 51.2224 24.7996 51.1261 23.9089 51.0303C20.7652 50.6919 17.6228 50.3421 14.4806 49.9908C14.4806 49.843 14.4806 49.6952 14.4806 49.543C18.6771 49.4304 22.874 49.3661 27.0717 49.3147C27.4726 49.3098 27.8734 49.3047 28.2743 49.2997C29.6537 49.2824 31.0332 49.2668 32.4127 49.2546C33.0764 49.2486 33.74 49.2402 34.4037 49.2293C34.8843 49.222 35.365 49.2174 35.8456 49.2123C36.0146 49.2088 36.1836 49.2053 36.3577 49.2017C37.3241 49.1948 38.0398 49.2355 38.7707 49.9386C38.8379 50.0269 38.905 50.1151 38.9741 50.206C39.0511 50.3047 39.128 50.4034 39.2073 50.505C39.2866 50.6094 39.3659 50.7137 39.4476 50.8212C42.6044 54.8204 47.3892 57.599 52.4886 58.2723C53.2173 58.3061 53.6077 58.2884 54.2263 57.884C54.5465 57.3579 54.6179 57.1636 54.4875 56.5591C54.1313 55.9773 53.688 55.4737 53.2373 54.9637C52.9947 54.6185 52.9947 54.6185 52.9201 54.2359C53.0221 53.7386 53.174 53.5608 53.5919 53.275C54.3218 53.3152 54.6982 53.5293 55.2433 54.0027C55.3839 54.1228 55.5246 54.2428 55.6695 54.3666C55.8229 54.5003 55.9763 54.634 56.1296 54.7678C56.3861 54.9883 56.6432 55.2081 56.9008 55.4273C57.0671 55.5691 57.2328 55.7115 57.3979 55.8546C58.2714 56.6053 58.2714 56.6053 59.3484 56.923C59.8615 56.8973 59.8615 56.8973 60.2161 56.6151C60.5207 56.17 60.608 55.9061 60.608 55.3649C60.06 54.2439 58.9772 53.3831 58.0423 52.5845C56.936 51.6249 56.936 51.6249 56.5774 51.0358C56.5774 50.5066 56.652 50.3641 57.0253 49.9908C57.6245 49.8978 57.8742 49.9614 58.3921 50.287C58.5604 50.4224 58.7267 50.5602 58.8913 50.6999C58.9808 50.7728 59.0703 50.8458 59.1625 50.9209C59.6399 51.3128 60.1078 51.7155 60.5748 52.1198C60.6664 52.199 60.758 52.2783 60.8523 52.3599C61.0265 52.5115 61.1997 52.6641 61.3719 52.8179C62.038 53.4038 62.7203 53.9448 63.6123 54.1053C64.2167 53.9871 64.4295 53.7703 64.7878 53.275C64.9373 52.772 64.9373 52.772 64.7878 52.23C64.4967 51.7755 64.1253 51.4144 63.7429 51.0358C63.5954 50.8866 63.4481 50.7373 63.3009 50.5879C62.9954 50.2793 62.6884 49.9724 62.3795 49.6672C62.2724 49.5613 62.2724 49.5613 62.1632 49.4533C61.9557 49.2486 61.7481 49.0441 61.5404 48.8397C61.0412 48.3309 60.7702 47.98 60.7293 47.2571C60.7385 47.1247 60.7478 46.9923 60.7573 46.8559C61.9886 46.8755 62.5394 47.2489 63.4443 48.0502C63.7729 48.3313 64.1032 48.6105 64.4333 48.8899C64.5172 48.961 64.601 49.0322 64.6874 49.1055C65.853 50.175 65.853 50.175 67.3256 50.5879C67.8272 50.4207 67.9173 50.2975 68.2213 49.8415C68.1912 49.0312 68.0066 48.6461 67.4749 48.0502C67.2256 47.8319 66.9701 47.6206 66.7098 47.4157C66.1533 46.9699 65.6128 46.5159 65.0864 46.0349C64.5858 45.5785 64.0751 45.1436 63.5469 44.7194C62.7327 44.0609 61.969 43.3568 61.2039 42.6429C60.7696 42.2379 60.3251 41.8464 59.875 41.4591C59.5448 41.1672 59.2242 40.8659 58.9031 40.564C57.508 39.1949 57.508 39.1949 55.698 38.622C54.6544 38.7 53.7673 39.5396 53.0041 40.185C52.7944 40.3582 52.5846 40.5314 52.3749 40.7046C52.0461 40.9782 51.7177 41.2525 51.3894 41.5268C50.1418 42.5401 49.0903 42.8355 47.4714 42.6761C46.508 42.3937 45.7334 41.774 44.9336 41.1833C44.7889 41.0786 44.6442 40.9739 44.4951 40.8661C43.939 40.3605 43.7578 40.0052 43.6741 39.252C43.6546 38.6203 43.9668 38.2433 44.3365 37.7499C45.5366 36.5071 46.9509 35.4755 48.3166 34.4239C48.5461 34.2465 48.7738 34.0669 49.0015 33.8873C49.1966 33.7354 49.1966 33.7354 49.3957 33.5805C49.737 33.2456 49.8673 32.9775 50.0091 32.5251C48.8128 32.5675 47.8359 32.8866 46.7343 33.3368C46.3937 33.4719 46.0529 33.6068 45.7121 33.7415C45.4488 33.8462 45.4488 33.8462 45.1802 33.953C44.2628 34.3134 43.339 34.6557 42.4145 34.9975C42.2425 35.0616 42.0705 35.1257 41.8933 35.1917C41.7331 35.2509 41.573 35.3102 41.4081 35.3713C41.267 35.4236 41.126 35.4758 40.9807 35.5297C39.4308 36.0665 37.9162 35.8139 36.3558 35.4567C35.3112 35.2194 34.2639 35.057 33.2017 34.9195C33.083 34.9033 32.9643 34.8871 32.842 34.8704C32.7373 34.857 32.6326 34.8436 32.5248 34.8298C32.2449 34.7643 32.2449 34.7643 31.797 34.4657C31.797 34.3179 31.797 34.1701 31.797 34.0179C33.0872 33.8596 34.3774 33.7243 35.6736 33.626C40.6751 33.2431 45.5001 32.4298 50.243 30.7444C53.9615 29.4445 57.6019 29.9038 61.2798 31.0696Z" fill="#C49E4A"/>
<path d="M79.1182 20.5827C79.2194 20.6153 79.3205 20.6479 79.4247 20.6815C83.5291 22.0087 87.5493 23.5606 91.4847 25.3282C92.2593 25.6726 92.8198 25.8275 93.6648 25.8116C93.9041 25.8085 93.9041 25.8085 94.1482 25.8053C94.4025 25.8018 94.4025 25.8018 94.662 25.7982C97.9903 25.7788 100.538 26.258 103.451 27.8974C103.451 27.9959 103.451 28.0945 103.451 28.196C103.205 28.2001 102.959 28.2029 102.714 28.2053C102.577 28.207 102.44 28.2088 102.299 28.2105C101.918 28.1992 101.56 28.1698 101.184 28.1237C97.3 27.6698 93.7546 28.4491 90.1044 29.6767C87.4939 30.5504 84.8469 31.0945 82.1038 31.3308C81.9241 31.3474 81.7444 31.3639 81.5592 31.381C80.2297 31.4841 78.9025 31.4951 77.5695 31.4988C77.2989 31.4998 77.2989 31.4998 77.0229 31.5009C76.8542 31.5006 76.6855 31.5003 76.5117 31.4999C76.3596 31.4998 76.2075 31.4996 76.0508 31.4994C75.6848 31.4801 75.6848 31.4801 75.3862 31.3308C75.3862 31.2323 75.3862 31.1338 75.3862 31.0323C75.5558 30.9971 75.7254 30.9618 75.9002 30.9255C83.1609 29.5263 83.1609 29.5263 90.0156 26.8524C84.0997 24.4482 78.1421 22.5332 71.8035 21.6277C71.6382 21.6032 71.4729 21.5788 71.3026 21.5536C66.2995 20.8439 60.8133 20.7467 55.8306 21.6277C55.6581 21.6565 55.4856 21.6854 55.3078 21.7151C49.0474 22.7765 40.5056 24.2938 35.6495 28.5886C35.5428 28.6828 35.436 28.777 35.326 28.874C35.2451 28.9458 35.1641 29.0176 35.0807 29.0916C35.1768 29.0879 35.2729 29.0842 35.372 29.0803C36.3943 29.0407 37.4167 29.0021 38.4392 28.9641C38.8181 28.9499 39.197 28.9354 39.576 28.9206C42.1592 28.8203 44.7365 28.7717 47.3217 28.7931C47.3709 28.9409 47.4202 29.0887 47.4709 29.2409C45.9929 30.2997 44.5756 30.5768 42.8153 30.855C42.5644 30.8978 42.3135 30.9408 42.0628 30.9842C39.5247 31.4163 37.0087 31.6754 34.437 31.7787C34.2979 31.7846 34.1587 31.7906 34.0154 31.7967C31.878 31.8877 29.7402 31.9493 27.6016 32.0026C27.415 32.0073 27.415 32.0073 27.2246 32.0121C25.9692 32.0436 24.7138 32.0743 23.4583 32.1014C18.5462 32.1897 18.5462 32.1897 13.6871 32.861C13.5249 32.8934 13.3628 32.9259 13.1957 32.9594C8.27352 33.9853 3.84026 36.2931 0.895678 40.4369C0.578459 40.8626 0.578459 40.8626 0.298559 41.1833C0.200035 41.1833 0.10151 41.1833 0 41.1833C0.246858 39.111 0.79214 37.7442 2.08992 36.1078C2.16785 36.005 2.24578 35.9023 2.32608 35.7964C6.25026 30.9284 13.6053 29.4652 19.4408 28.7225C19.5892 28.7036 19.7377 28.6847 19.8907 28.6651C20.6329 28.5712 21.3753 28.48 22.1183 28.3928C25.9479 27.9314 29.3977 26.8348 32.9355 25.3374C43.8708 20.7124 56.6979 16.651 79.1182 20.5827Z" fill="#C49E4A"/>
<path d="M50.9035 0.131453C51.3566 0.382196 51.3566 0.382196 51.8085 0.709912C56.14 3.67826 61.4027 4.93774 66.5965 4.94572C66.753 4.94625 66.753 4.94625 66.9126 4.94678C68.6106 4.94891 70.2516 4.80067 71.9338 4.56378C74.2824 4.2352 74.2824 4.2352 75.0985 4.59876C75.3961 4.82604 75.6025 5.06068 75.8332 5.35624C75.9348 5.48498 76.0364 5.61371 76.1411 5.74635C76.4331 6.12911 76.7179 6.51617 77.0002 6.90611C77.2856 7.29654 77.5811 7.67897 77.8765 8.06194C77.9372 8.14066 77.9978 8.21939 78.0604 8.30051C79.2365 9.82463 80.4188 11.344 81.6085 12.8575C81.707 12.9829 81.707 12.9829 81.8074 13.1108C82.1462 13.5415 82.4857 13.9716 82.826 14.4011C83.1702 14.8357 83.5121 15.272 83.8523 15.7098C84.0377 15.9475 84.2249 16.1837 84.4121 16.4198C84.5214 16.5621 84.6307 16.7043 84.7433 16.8508C84.8874 17.0355 84.8874 17.0355 85.0343 17.224C85.2875 17.6883 85.3049 17.9709 85.2378 18.4929C84.8802 19.1257 84.2763 19.7324 83.5957 19.9857C82.8916 20.0268 82.427 19.9898 81.8849 19.5139C81.4843 19.0659 81.1072 18.6049 80.7408 18.129C80.5952 17.9418 80.4496 17.7546 80.304 17.5674C80.1939 17.4253 80.1939 17.4253 80.0815 17.2803C79.8121 16.9336 79.5406 16.5886 79.2688 16.2438C77.7773 14.3511 76.2967 12.4498 74.8405 10.5298C74.6255 10.2472 74.4085 9.96618 74.1911 9.68535C74.1269 9.59943 74.0626 9.51351 73.9964 9.42499C73.6084 8.92539 73.3244 8.6206 72.6983 8.49111C72.2401 8.50223 71.7905 8.56352 71.3362 8.62173C64.5298 9.35369 57.3668 8.44559 51.3353 5.02874C50.8413 4.75222 50.5332 4.61148 49.9582 4.59935C49.1966 4.8216 48.5209 5.16522 47.8153 5.52418C44.6022 7.10615 41.1677 8.14759 37.6176 8.64039C37.5175 8.6549 37.4173 8.6694 37.3142 8.68435C36.0836 8.83559 34.8445 8.81214 33.6068 8.80914C33.2148 8.80834 32.8228 8.80913 32.4307 8.81008C31.3128 8.8105 30.2068 8.8103 29.0954 8.67494C28.7077 8.62799 28.3234 8.6153 27.9331 8.6124C27.8011 8.61029 27.6691 8.60817 27.5331 8.60599C26.898 8.66585 26.6499 8.84893 26.2269 9.33081C26.0978 9.49788 25.97 9.66589 25.8432 9.83463C25.6968 10.0251 25.5504 10.2156 25.4041 10.4061C25.3269 10.5074 25.2497 10.6087 25.1702 10.7131C24.8406 11.1443 24.5068 11.5722 24.173 12.0002C23.9092 12.3385 23.646 12.6773 23.383 13.0162C23.0104 13.4959 22.6367 13.9747 22.2622 14.453C22.1682 14.5733 22.0741 14.6936 21.9772 14.8176C21.7979 15.047 21.6182 15.2763 21.4384 15.5054C21.2061 15.8028 20.977 16.1022 20.749 16.4029C20.6308 16.5577 20.5127 16.7124 20.391 16.8718C20.1014 17.3888 20.0462 17.6103 20.1519 18.1943C20.3718 18.638 20.6422 19.0425 20.9169 19.4538C22.02 21.1799 23.4301 23.5584 22.9882 25.6583C20.7656 26.2198 20.7656 26.2198 20.0026 26.1061C19.4098 25.6448 19.2152 25.0888 18.9856 24.3987C18.1965 22.184 17.0777 20.1593 15.1411 18.7512C14.9271 18.4929 14.9271 18.4929 14.8414 18.0893C14.9652 17.3786 15.3361 16.9626 15.7854 16.4123C15.8731 16.3015 15.9607 16.1907 16.051 16.0765C16.3212 15.7358 16.5942 15.3975 16.8677 15.0594C17.0263 14.8611 17.1847 14.6626 17.343 14.4641C17.6403 14.0913 17.9386 13.7194 18.2375 13.348C18.7513 12.7073 19.2505 12.0561 19.7495 11.4038C20.2284 10.7785 20.7128 10.1574 21.1968 9.53607C21.753 8.82207 22.3084 8.10754 22.859 7.38923C23.3657 6.72808 23.8738 6.06784 24.3877 5.41222C24.5234 5.23846 24.5234 5.23846 24.6618 5.06118C25.0861 4.58125 25.3232 4.3319 25.979 4.26522C26.7564 4.32572 27.5113 4.46314 28.2783 4.60051C35.4434 5.80003 42.3214 4.37791 48.5082 0.609177C49.3946 0.080696 49.8941 -0.17402 50.9035 0.131453Z" fill="white"/>
<path d="M115.244 13.7159C116.919 13.7159 118.594 13.7159 120.319 13.7159C122.303 18.2682 124.273 22.8253 126.194 27.4047C126.472 28.0679 126.753 28.7296 127.037 29.3902C127.576 28.3437 128.06 27.2825 128.518 26.1982C128.587 26.0374 128.655 25.8765 128.725 25.7108C128.947 25.1896 129.167 24.6682 129.388 24.1468C129.541 23.7865 129.694 23.4263 129.847 23.0661C130.504 21.5187 131.16 19.9706 131.815 18.4225C132.052 17.8635 132.289 17.3046 132.526 16.7457C132.689 16.3614 132.851 15.977 133.013 15.5926C133.111 15.3625 133.208 15.1325 133.306 14.9025C133.349 14.7983 133.393 14.694 133.438 14.5866C133.738 13.8821 133.738 13.8821 133.904 13.7159C135.579 13.7159 137.254 13.7159 138.979 13.7159C138.979 20.9081 138.979 28.1004 138.979 35.5107C137.502 35.5107 136.024 35.5107 134.501 35.5107C134.452 31.1263 134.403 26.742 134.352 22.2248C132.574 26.5218 132.574 26.5218 130.806 30.823C130.751 30.9573 130.696 31.0917 130.639 31.2301C130.379 31.8662 130.119 32.5025 129.859 33.1389C129.765 33.367 129.672 33.595 129.579 33.8231C129.537 33.9256 129.495 34.0281 129.453 34.1337C129.26 34.6037 129.056 35.0557 128.828 35.5107C127.695 35.5107 126.562 35.5107 125.395 35.5107C124.955 34.6313 124.534 33.7868 124.175 32.879C124.133 32.775 124.091 32.671 124.048 32.5639C123.959 32.3406 123.869 32.1171 123.78 31.8936C123.538 31.2879 123.294 30.6831 123.05 30.0783C122.974 29.8881 122.974 29.8881 122.895 29.694C121.907 27.246 120.885 24.8116 119.872 22.3741C119.822 26.7092 119.773 31.0442 119.722 35.5107C118.244 35.5107 116.767 35.5107 115.244 35.5107C115.244 28.3184 115.244 21.1261 115.244 13.7159Z" fill="white"/>
<path d="M17.4654 52.23C19.8177 52.1713 19.8177 52.1713 20.6003 52.5286C21.3047 53.2047 21.4899 54.0855 21.7666 54.9917C22.3895 56.9391 23.1452 58.5726 24.4816 60.1419C24.5684 60.2502 24.6552 60.3585 24.7446 60.4702C27.8011 64.1419 33.008 65.7463 37.2738 67.5596C40.4561 68.9124 43.598 70.3075 46.6537 71.9315C46.7925 72.0049 46.7925 72.0049 46.9342 72.0798C47.3767 72.3139 47.8175 72.5502 48.2564 72.7911C49.3667 73.4124 49.3667 73.4124 50.6055 73.4278C50.9796 73.2422 51.2977 73.0604 51.6411 72.8306C51.839 72.7055 52.0373 72.5812 52.2359 72.4574C52.3369 72.3945 52.4378 72.3316 52.5418 72.2668C53.4055 71.7463 54.3227 71.3212 55.2332 70.89C55.3362 70.8409 55.4392 70.7918 55.5453 70.7412C57.2537 69.9326 59.0006 69.2265 60.7565 68.5295C71.198 64.602 71.198 64.602 78.073 56.2606C78.3521 55.4766 78.5728 54.6803 78.7896 53.8774C78.8272 53.7432 78.8647 53.6091 78.9034 53.4709C78.9343 53.3533 78.9653 53.2358 78.9972 53.1146C79.1179 52.8272 79.1179 52.8272 79.5658 52.5286C79.9181 52.481 79.9181 52.481 80.3279 52.4668C80.548 52.4581 80.548 52.4581 80.7726 52.4493C80.9254 52.4447 81.0783 52.4401 81.2358 52.4353C81.4678 52.4266 81.4678 52.4266 81.7044 52.4178C82.0862 52.4037 82.468 52.3909 82.8499 52.3793C82.4473 57.1821 80.3554 61.6695 76.6532 64.8117C73.5612 67.351 69.7177 68.8448 66.08 70.4195C65.3654 70.7289 64.6512 71.0393 63.9369 71.3495C63.6371 71.4797 63.3373 71.6098 63.0375 71.74C56.3713 74.3668 56.3713 74.3668 50.6055 78.5033C50.1629 78.6047 49.9847 78.6307 49.5606 78.5033C49.1802 78.2104 48.8459 77.8837 48.4993 77.5516C45.2833 74.6311 40.7239 73.2543 36.7713 71.6591C27.2602 67.8189 27.2602 67.8189 23.7352 64.7695C23.6116 64.6641 23.4881 64.5586 23.3608 64.45C20.2085 61.6929 17.992 57.9231 17.4654 53.7228C17.456 53.4555 17.4525 53.1879 17.4561 52.9205C17.4575 52.79 17.4588 52.6595 17.4602 52.5251C17.4619 52.4277 17.4636 52.3304 17.4654 52.23Z" fill="white"/>
<path d="M226.009 12.5217C227.487 12.5217 228.964 12.5217 230.487 12.5217C230.487 20.1081 230.487 27.6945 230.487 35.5108C229.009 35.5108 227.531 35.5108 226.009 35.5108C225.959 34.8211 225.91 34.1314 225.859 33.4208C225.767 33.5502 225.675 33.6795 225.58 33.8127C224.603 34.983 223.005 35.6068 221.53 35.8093C219.198 35.9454 217.186 35.535 215.382 33.99C213.598 32.296 212.626 30.1322 212.523 27.6765C212.477 24.7129 212.954 22.2432 215.058 20.0189C215.581 19.5254 216.126 19.1403 216.753 18.7914C216.857 18.7333 216.961 18.6752 217.068 18.6153C218.767 17.7661 220.819 17.6948 222.633 18.1803C223.829 18.5992 224.956 19.2314 225.859 20.135C225.909 17.6226 225.958 15.1102 226.009 12.5217ZM217.948 23.7177C217.092 25.0275 216.929 26.4622 217.136 27.9908C217.446 29.4167 218.263 30.4946 219.44 31.3309C220.411 31.9327 221.459 31.8904 222.575 31.7788C223.713 31.4943 224.724 30.7546 225.348 29.7635C226.068 28.3769 226.249 26.8875 225.907 25.3481C225.424 23.9137 224.683 22.9068 223.322 22.2249C221.312 21.2872 219.304 22.1531 217.948 23.7177Z" fill="white"/>
<path d="M199.215 19.9955C200.771 21.4653 201.847 23.4152 202.003 25.5772C202.077 28.6948 201.709 31.0201 199.5 33.373C197.62 35.1831 195.303 35.869 192.739 35.8541C190.211 35.7875 188.221 34.9147 186.451 33.1222C186.322 32.9984 186.322 32.9984 186.191 32.8721C184.683 31.2976 184.213 28.9504 184.156 26.8432C184.211 24.6276 184.868 22.8069 186.153 21.0306C186.263 20.8766 186.374 20.7227 186.488 20.5641C189.76 17.1434 195.626 17.0291 199.215 19.9955ZM189.866 23.2791C188.712 24.7251 188.686 26.4292 188.84 28.196C189.003 29.3385 189.506 30.2277 190.332 31.0323C191.524 31.8745 192.67 32.0973 194.109 31.8749C195.292 31.5618 196.189 30.7513 196.862 29.75C197.619 28.2265 197.631 26.1957 197.115 24.5853C196.585 23.3928 195.805 22.5957 194.613 22.0621C192.812 21.4497 191.176 21.9106 189.866 23.2791Z" fill="white"/>
<path d="M179.881 19.5378C181.207 20.8061 181.511 21.855 181.822 23.7176C180.393 23.7176 178.965 23.7176 177.493 23.7176C177.247 23.225 177 22.7324 176.746 22.2248C175.943 21.6224 175.25 21.4227 174.265 21.5157C173.465 21.6361 173.465 21.6361 172.716 21.9263C172.387 22.5561 172.371 23.0394 172.567 23.7176C173.427 24.7722 175.176 25.0189 176.429 25.341C178.37 25.8479 180.23 26.4602 181.419 28.1779C182.053 29.3258 181.995 30.8149 181.729 32.068C181.245 33.4497 180.304 34.396 179.014 35.0535C176.83 36.0887 174.102 36.1376 171.82 35.3614C169.888 34.5674 168.762 33.5503 167.818 31.6948C167.64 31.1816 167.64 31.1816 167.491 29.9874C169.018 29.9874 170.545 29.9874 172.119 29.9874C172.34 30.5785 172.34 30.5785 172.567 31.1816C173.322 31.9534 174.014 32.2338 175.076 32.2732C175.831 32.255 176.525 32.1412 177.194 31.7787C177.572 31.2706 177.517 30.7412 177.489 30.1314C177.179 29.5047 176.401 29.2786 175.779 29.0509C175.596 28.9966 175.414 28.9423 175.226 28.8864C175.125 28.8557 175.024 28.825 174.92 28.7934C174.33 28.6146 173.737 28.4456 173.143 28.2794C169.537 27.2582 169.537 27.2582 168.536 25.6583C167.865 24.3455 167.829 22.799 168.247 21.3898C168.966 19.8383 170.114 18.9789 171.671 18.3436C172.066 18.2089 172.454 18.1162 172.865 18.045C173.059 18.0111 173.253 17.9773 173.453 17.9424C175.735 17.7292 178.075 18.03 179.881 19.5378Z" fill="white"/>
<path d="M163.013 19.5378C164.359 20.7878 164.752 21.9044 164.953 23.7176C163.525 23.7176 162.096 23.7176 160.624 23.7176C160.427 23.2742 160.23 22.8309 160.027 22.3741C159.488 21.7897 158.866 21.5677 158.086 21.4784C157.299 21.4784 156.621 21.5615 155.996 22.0755C155.648 22.5054 155.549 22.723 155.549 23.2791C155.746 23.8601 155.916 23.9975 156.444 24.3147C157.209 24.6605 158.008 24.8933 158.817 25.1118C163.541 26.39 163.541 26.39 164.804 28.5599C165.2 29.8897 165.166 31.4973 164.589 32.7583C163.691 34.2903 162.387 35.082 160.73 35.6221C158.48 36.1827 155.827 35.9289 153.798 34.8191C152.301 33.9189 151.249 32.7456 150.772 31.0323C150.772 30.6875 150.772 30.3426 150.772 29.9873C152.249 29.9873 153.727 29.9873 155.25 29.9873C155.398 30.3814 155.546 30.7755 155.698 31.1816C156.46 31.9604 157.155 32.2343 158.226 32.2732C159.046 32.2559 159.665 32.0806 160.307 31.5455C160.672 31.079 160.693 30.7201 160.624 30.1366C160.111 29.5199 159.668 29.2601 158.907 29.0264C158.813 28.9964 158.718 28.9665 158.62 28.9357C158.032 28.7531 157.44 28.5879 156.847 28.424C152.615 27.254 152.615 27.254 151.527 25.4623C150.95 24.1991 150.993 22.531 151.462 21.2358C152.168 19.7898 153.307 19.0066 154.765 18.3809C157.448 17.4794 160.788 17.678 163.013 19.5378Z" fill="white"/>
<path d="M245.248 49.6363C246.103 50.301 246.724 51.1138 247.208 52.0807C247.268 51.9868 247.327 51.8929 247.389 51.7962C248.475 50.1613 249.722 49.0236 251.653 48.5599C253.618 48.1928 255.611 48.4557 257.321 49.4963C258.774 50.5513 259.672 51.8769 259.992 53.6546C260.176 55.1105 260.235 56.5342 260.224 58.0006C260.224 58.2281 260.223 58.4556 260.223 58.6832C260.222 59.2731 260.219 59.863 260.216 60.453C260.212 61.0585 260.211 61.6641 260.21 62.2696C260.206 63.4513 260.201 64.6329 260.195 65.8145C259.407 65.8145 258.619 65.8145 257.807 65.8145C257.805 65.4847 257.804 65.1549 257.802 64.8151C257.797 63.7194 257.789 62.6237 257.779 61.5279C257.773 60.8643 257.768 60.2007 257.766 59.5371C257.764 58.8953 257.759 58.2536 257.752 57.6119C257.749 57.3684 257.748 57.1248 257.748 56.8813C257.746 55.1135 257.636 53.3191 256.455 51.8947C255.411 50.9548 254.119 50.5381 252.731 50.5879C251.404 50.6793 250.284 51.1059 249.325 52.0487C248.273 53.3327 247.944 54.9392 247.923 56.5614C247.922 56.662 247.92 56.7626 247.919 56.8662C247.914 57.1957 247.911 57.5253 247.907 57.8548C247.904 58.0845 247.901 58.3141 247.897 58.5438C247.889 59.146 247.882 59.7482 247.875 60.3505C247.867 60.9659 247.859 61.5813 247.851 62.1968C247.835 63.4026 247.819 64.6085 247.805 65.8145C247.066 65.8145 246.327 65.8145 245.566 65.8145C245.563 65.5035 245.561 65.1926 245.559 64.8723C245.551 63.8379 245.541 62.8036 245.53 61.7692C245.524 61.1429 245.518 60.5166 245.514 59.8903C245.51 59.2844 245.504 58.6785 245.496 58.0726C245.494 57.8429 245.492 57.6133 245.491 57.3836C245.483 55.4479 245.431 53.4449 244.073 51.9314C242.969 50.9094 241.827 50.6061 240.341 50.5879C238.806 50.7303 237.713 51.2922 236.712 52.4574C235.401 54.1152 235.541 56.3622 235.517 58.3651C235.514 58.5807 235.51 58.7963 235.507 59.0119C235.499 59.5751 235.492 60.1383 235.484 60.7016C235.477 61.278 235.469 61.8544 235.46 62.4309C235.444 63.5587 235.429 64.6866 235.415 65.8145C234.676 65.8145 233.937 65.8145 233.175 65.8145C233.175 60.1986 233.175 54.5827 233.175 48.7966C233.914 48.7966 234.653 48.7966 235.415 48.7966C235.464 49.5848 235.513 50.373 235.564 51.185C235.656 51.0342 235.749 50.8833 235.844 50.7279C237.93 47.8406 242.491 47.7904 245.248 49.6363Z" fill="white"/>
<path d="M217.053 49.8416C217.722 50.4338 218.348 51.0372 218.844 51.7822C218.894 50.7969 218.943 49.8117 218.994 48.7966C219.733 48.7966 220.472 48.7966 221.233 48.7966C221.233 54.4125 221.233 60.0284 221.233 65.8145C220.494 65.8145 219.755 65.8145 218.994 65.8145C218.92 64.2627 218.92 64.2627 218.844 62.6796C218.549 63.0737 218.253 63.4678 217.949 63.8738C216.58 65.4045 214.664 65.9863 212.675 66.1399C210.565 66.2082 208.556 65.5836 206.949 64.2062C205.081 62.41 204.24 60.2287 204.162 57.6507C204.139 55.083 204.772 52.581 206.548 50.6533C209.316 48.1353 213.958 47.6115 217.053 49.8416ZM208.124 52.4913C206.647 54.317 206.416 56.3839 206.604 58.6491C206.898 60.3341 207.658 61.8268 209.011 62.8942C210.456 63.856 212.045 64.2294 213.769 64.0231C215.394 63.6665 216.86 62.8887 217.799 61.4854C219.045 59.3735 219.303 57.3009 218.691 54.9223C218.477 54.2545 218.201 53.699 217.799 53.1257C217.681 52.9554 217.681 52.9554 217.559 52.7817C216.7 51.6913 215.308 50.8134 213.918 50.588C211.703 50.4524 209.705 50.798 208.124 52.4913Z" fill="white"/>
<path d="M183.951 43.805C184.215 43.8069 184.215 43.8069 184.486 43.8088C187.389 43.8647 189.865 44.7929 191.975 46.8559C192.775 47.7902 193.915 49.1525 193.915 50.4387C192.042 50.6154 192.042 50.6154 191.228 50.4387C190.738 50.0218 190.574 49.5312 190.332 48.9459C189.342 47.4936 187.845 46.6355 186.164 46.2081C183.776 45.7615 181.371 46.0335 179.317 47.3708C179.208 47.4472 179.099 47.5236 178.987 47.6023C178.892 47.668 178.797 47.7336 178.7 47.8012C177.192 48.9614 176.201 51.1162 175.895 52.9659C175.637 55.7464 175.867 58.3763 177.494 60.739C178.879 62.3874 180.559 63.4506 182.719 63.7246C185.254 63.8843 187.437 63.5387 189.474 61.9052C190.231 61.2092 190.771 60.3105 191.228 59.3954C192.115 59.3954 193.002 59.3954 193.915 59.3954C193.597 60.9878 192.652 62.1473 191.527 63.2767C191.389 63.4196 191.389 63.4196 191.249 63.5654C189.998 64.7676 188.281 65.473 186.6 65.8145C186.471 65.8418 186.342 65.8691 186.209 65.8973C182.906 66.3326 179.813 65.7769 177.131 63.7525C175.253 62.1269 173.939 59.8988 173.464 57.4548C173.437 57.3243 173.41 57.1939 173.382 57.0595C172.947 53.8185 173.504 50.6042 175.405 47.9009C177.565 45.1169 180.462 43.7733 183.951 43.805Z" fill="white"/>
<path d="M142.758 43.8051C142.935 43.8062 143.112 43.8073 143.294 43.8085C146.27 43.8644 148.778 44.937 150.857 47.0799C151.539 47.8578 152.713 49.3538 152.713 50.4387C150.869 50.6515 150.869 50.6515 150.026 50.4387C149.454 49.9309 149.177 49.3219 148.832 48.6473C147.794 47.2644 146.043 46.3873 144.354 46.1096C141.616 45.8703 139.309 46.2301 137.151 48.0321C135.573 49.5111 134.648 51.7063 134.509 53.8639C134.507 53.9652 134.504 54.0664 134.501 54.1707C134.495 54.2842 134.49 54.3977 134.484 54.5147C134.411 57.0597 135.171 59.6778 136.899 61.5973C138.727 63.2692 140.955 63.8556 143.378 63.7759C145.477 63.6513 147.27 62.8407 148.748 61.3425C149.002 61.0327 149.002 61.0327 149.183 60.6066C149.425 60.1007 149.602 59.7678 150.026 59.3955C150.903 59.1875 151.827 59.3026 152.713 59.3955C152.022 61.5805 150.643 63.3923 148.654 64.552C145.716 66.076 142.405 66.493 139.206 65.555C136.292 64.5093 134.235 62.5506 132.896 59.778C132.327 58.4619 132.038 57.0925 131.963 55.6635C131.957 55.5493 131.951 55.4352 131.945 55.3177C131.863 52.2071 132.84 49.3046 134.874 46.9405C137.015 44.7454 139.737 43.7779 142.758 43.8051Z" fill="#C49E4A"/>
<path d="M115.542 44.0196C125.924 44.0196 125.924 44.0196 127.989 45.923C129.245 47.2743 129.65 48.9163 129.611 50.7203C129.479 52.394 128.91 53.8691 127.681 55.0383C126.196 56.2397 124.446 56.611 122.581 56.5883C122.462 56.588 122.343 56.5877 122.221 56.5874C121.783 56.5858 121.345 56.5817 120.907 56.5778C119.925 56.5716 118.943 56.5655 117.931 56.5591C117.931 59.6134 117.931 62.6677 117.931 65.8145C117.143 65.8145 116.354 65.8145 115.542 65.8145C115.542 58.6222 115.542 51.4299 115.542 44.0196ZM117.931 45.9603C117.931 48.8175 117.931 51.6747 117.931 54.6185C118.83 54.6308 119.729 54.6431 120.655 54.6558C120.935 54.6613 121.215 54.6667 121.503 54.6723C123.196 54.6914 124.934 54.6346 126.231 53.391C127.118 52.264 127.287 50.9303 127.186 49.543C126.968 48.3556 126.519 47.4465 125.591 46.6694C123.997 45.8272 122.431 45.9069 120.674 45.9323C119.316 45.9461 119.316 45.9461 117.931 45.9603Z" fill="#C49E4A"/>
<path d="M156.893 44.0196C167.307 44.0196 167.307 44.0196 169.298 45.9457C170.664 47.4516 170.886 49.1295 170.83 51.0976C170.738 52.7081 169.99 54.011 168.841 55.1159C166.902 56.7054 164.443 56.6189 162.081 56.5871C160.622 56.5733 160.622 56.5733 159.133 56.5591C159.133 59.6134 159.133 62.6677 159.133 65.8145C158.394 65.8145 157.655 65.8145 156.893 65.8145C156.893 58.6222 156.893 51.4299 156.893 44.0196ZM159.133 45.9603C159.133 48.8175 159.133 51.6747 159.133 54.6185C160.038 54.6277 160.943 54.637 161.876 54.6465C162.158 54.6506 162.441 54.6546 162.732 54.6588C164.367 54.6726 165.864 54.6562 167.194 53.5735C168.123 52.6006 168.472 51.7064 168.453 50.392C168.452 50.2806 168.451 50.1692 168.449 50.0545C168.416 48.9899 168.242 48.1159 167.522 47.2962C166.328 46.1767 165.079 45.9355 163.491 45.9457C163.381 45.9458 163.27 45.946 163.156 45.9462C162.745 45.9469 162.333 45.949 161.922 45.9509C161.002 45.954 160.081 45.9571 159.133 45.9603Z" fill="#C49E4A"/>
<path d="M205.109 12.5217C206.587 12.5217 208.065 12.5217 209.588 12.5217C209.588 20.1081 209.588 27.6945 209.588 35.5108C208.11 35.5108 206.632 35.5108 205.109 35.5108C205.109 27.9244 205.109 20.338 205.109 12.5217Z" fill="white"/>
<path d="M27.1881 34.2978C27.3829 34.3095 27.5777 34.3211 27.7784 34.3332C28.8874 34.4075 29.9629 34.5344 31.0507 34.7643C31.0507 34.8628 31.0507 34.9613 31.0507 35.0628C30.4162 35.1387 29.7816 35.2146 29.147 35.2903C28.5878 35.357 28.0287 35.424 27.4695 35.4911C25.9868 35.6686 24.5038 35.8412 23.0194 36.004C22.5931 36.0514 22.1669 36.0988 21.7407 36.1464C21.47 36.1762 21.1991 36.2055 20.9282 36.2341C18.5164 36.4894 16.3149 36.9721 14.0422 37.8432C13.8718 37.9077 13.7015 37.9723 13.526 38.0388C13.1732 38.1731 12.8206 38.3081 12.4682 38.4439C11.9539 38.6413 11.438 38.8346 10.9219 39.0275C9.22085 39.6729 7.67391 40.2981 6.2703 41.4819C6.19133 41.5483 6.11236 41.6148 6.031 41.6833C5.15344 42.4306 4.34613 43.1828 3.73254 44.1689C5.47135 44.5075 7.21038 44.5544 8.97599 44.6167C10.7538 44.6801 12.5204 44.7508 14.2874 44.966C15.5834 45.1207 16.7729 45.2007 17.9141 44.4674C18.466 43.9068 18.9319 43.3036 19.4069 42.6761C19.6528 42.3749 19.9027 42.0776 20.1533 41.7804C20.4161 42.5688 19.9015 43.3344 19.5492 44.0522C18.987 45.1032 18.2677 45.9209 17.1677 46.4081C16.6322 46.4912 16.6322 46.4912 16.056 46.5033C15.95 46.5063 15.8439 46.5093 15.7347 46.5124C15.3853 46.5216 15.036 46.5267 14.6865 46.5317C14.4384 46.5373 14.1903 46.5432 13.9422 46.5492C13.2871 46.5645 12.632 46.5763 11.9768 46.5875C11.4565 46.5969 10.9363 46.6088 10.4161 46.6208C7.19287 46.6952 3.97098 46.7234 0.746948 46.7066C0.768149 46.4193 0.79013 46.1321 0.81244 45.8448C0.824597 45.6848 0.836754 45.5249 0.84928 45.36C0.940256 44.4982 1.2874 43.7567 1.64263 42.9747C1.70555 42.8346 1.76848 42.6945 1.83331 42.5501C3.12705 39.9401 5.4768 38.3157 8.06165 37.1527C8.26583 37.0608 8.26583 37.0608 8.47414 36.9669C14.4418 34.3121 20.7238 33.9026 27.1881 34.2978Z" fill="#C49E4A"/>
<path d="M274.674 49.8416C275.736 50.7527 276.197 51.7609 276.466 53.1258C276.466 53.3721 276.466 53.6184 276.466 53.8721C275.677 53.8721 274.889 53.8721 274.077 53.8721C274.031 53.5766 274.031 53.5766 273.984 53.275C273.779 52.3719 273.361 51.647 272.574 51.1326C271.371 50.5166 270.119 50.406 268.785 50.6568C268.052 50.9019 267.382 51.3133 266.912 51.9315C266.608 52.6625 266.559 53.231 266.772 53.9934C267.913 55.8709 270.372 56.2209 272.358 56.7857C274.063 57.2923 275.461 58.0017 276.363 59.5914C276.689 60.8655 276.741 62.1417 276.133 63.3392C275.158 64.8961 273.881 65.6299 272.091 66.0431C271.81 66.0837 271.525 66.0989 271.241 66.1131C271.146 66.1206 271.051 66.1281 270.954 66.1358C268.955 66.2298 266.935 65.6865 265.372 64.4337C264.563 63.6831 264.044 62.7031 263.777 61.6347C263.777 61.3884 263.777 61.1421 263.777 60.8883C264.565 60.8883 265.353 60.8883 266.165 60.8883C266.224 61.0915 266.282 61.2947 266.342 61.5041C266.695 62.5363 267.151 63.0495 268.106 63.5473C269.38 64.1625 270.931 64.2549 272.286 63.8366C273.118 63.5105 273.702 63.0564 274.077 62.2318C274.279 61.3353 274.27 60.8068 273.778 59.9926C272.705 58.9682 271.13 58.6831 269.737 58.28C265.697 57.107 265.697 57.107 264.78 55.6606C264.155 54.458 264.014 53.1702 264.365 51.8475C264.904 50.4542 266.035 49.5574 267.364 48.9634C269.735 48.0714 272.64 48.2595 274.674 49.8416Z" fill="white"/>
<path d="M104.346 34.4657C104.346 34.6135 104.346 34.7613 104.346 34.9136C104.21 34.9107 104.073 34.9079 103.932 34.905C102.583 34.8893 101.282 34.9736 99.9423 35.1561C99.6802 35.1876 99.6802 35.1876 99.4128 35.2197C96.5203 35.6043 93.7324 36.5319 90.9595 37.4096C86.3033 38.8784 81.5918 40.2996 76.7293 40.8847C76.6175 40.8996 76.5057 40.9145 76.3905 40.9298C75.2657 41.0641 74.1376 41.0618 73.0064 41.0617C72.6642 41.062 72.322 41.0647 71.9798 41.0676C70.1255 41.0749 68.3214 40.9506 66.5597 40.3249C66.3896 40.2657 66.3896 40.2657 66.2162 40.2053C64.4337 39.5685 63.1365 38.7812 61.8014 37.4513C61.8506 37.3528 61.8999 37.2543 61.9506 37.1528C62.4886 37.2376 62.9637 37.3982 63.4672 37.6034C67.9501 39.4131 72.4889 38.8398 77.1408 38.1013C77.4587 38.0511 77.7767 38.0024 78.0949 37.954C80.8129 37.5373 83.4345 36.8969 86.0839 36.1679C88.2611 35.5701 90.4434 35.0475 92.6556 34.5963C92.7898 34.5686 92.9239 34.5408 93.0622 34.5122C96.7014 33.7634 100.763 33.108 104.346 34.4657Z" fill="#C49E4A"/>
<path d="M143.01 18.1943C144.488 18.1943 145.965 18.1943 147.488 18.1943C147.488 23.9088 147.488 29.6232 147.488 35.5108C146.01 35.5108 144.532 35.5108 143.01 35.5108C143.01 29.7964 143.01 24.0819 143.01 18.1943Z" fill="white"/>
<path d="M198.094 42.8255C198.883 42.8255 199.671 42.8255 200.483 42.8255C200.483 50.4119 200.483 57.9983 200.483 65.8145C199.695 65.8145 198.906 65.8145 198.094 65.8145C198.094 58.2281 198.094 50.6418 198.094 42.8255Z" fill="white"/>
<path d="M226.158 48.7966C226.897 48.7966 227.636 48.7966 228.398 48.7966C228.398 54.4125 228.398 60.0285 228.398 65.8145C227.659 65.8145 226.92 65.8145 226.158 65.8145C226.158 60.1986 226.158 54.5827 226.158 48.7966Z" fill="white"/>
<path d="M146.669 11.3204C147.257 11.6635 147.692 12.0229 147.937 12.6709C148.121 13.5105 148.176 14.2891 147.816 15.0856C147.378 15.7561 146.817 16.1571 146.043 16.3574C145.162 16.4723 144.368 16.4465 143.607 15.9551C142.904 15.3042 142.546 14.735 142.506 13.7625C142.517 12.9287 142.753 12.3922 143.309 11.7752C144.244 10.9957 145.529 10.8876 146.669 11.3204Z" fill="white"/>
<path d="M228.1 42.5269C228.466 42.8106 228.642 43.0134 228.847 43.4226C228.927 44.0954 228.937 44.6094 228.595 45.2046C228.051 45.6897 227.713 45.8148 226.981 45.8017C226.332 45.6281 226.1 45.4633 225.712 44.9154C225.525 44.2782 225.487 43.7646 225.73 43.1427C226.438 42.3408 227.093 42.2445 228.1 42.5269Z" fill="white"/>
</svg>
