<svg width="150" height="52" viewBox="0 0 150 52" fill="none" xmlns="http://www.w3.org/2000/svg">
<path d="M38.9905 36.0805L23.7987 49.9315C21.8415 51.7155 18.9113 51.7155 16.9543 49.9315L1.7625 36.0805C0.643332 35.0586 0 33.5827 0 32.0364V7.62156C0 4.94002 1.90297 2.66396 4.46031 2.28552L19.6466 0.0527182C20.1277 -0.0175727 20.6197 -0.0175727 21.1009 0.0527182L36.2927 2.29092C38.8498 2.66937 40.7528 4.94002 40.7528 7.62156V32.0364C40.7528 33.588 40.1095 35.0586 38.9905 36.0805Z" fill="#21C45D"/>
<path d="M16.9275 32.9606L8.36399 24.9321C7.78004 24.386 7.78004 23.4616 8.36399 22.9155L10.8562 20.5746C11.3861 20.0772 12.2133 20.0772 12.743 20.5746L16.9222 24.4941C17.4519 24.9917 18.2791 24.9917 18.809 24.4941L29.1189 14.8331C29.6486 14.3358 30.4758 14.3358 31.0057 14.8331L33.4979 17.174C34.0818 17.7201 34.0818 18.6446 33.4979 19.1906L18.8035 32.9606C18.2738 33.458 17.4466 33.458 16.9167 32.9606H16.9275Z" fill="white"/>
<path d="M136.288 26.6166V8.79728H148.295V11.9035H140.056V16.1495H147.678V19.2557H140.056V23.5104H148.33V26.6166H136.288Z" fill="white"/>
<path d="M120.209 26.6166V8.79728H127.24C128.585 8.79728 129.734 9.038 130.685 9.51945C131.642 9.99509 132.37 10.6709 132.869 11.5467C133.374 12.4168 133.626 13.4406 133.626 14.6181C133.626 15.8015 133.371 16.8195 132.86 17.6721C132.35 18.519 131.61 19.1687 130.642 19.6211C129.679 20.0736 128.513 20.2998 127.144 20.2998H122.437V17.2719H126.535C127.254 17.2719 127.852 17.1733 128.327 16.9761C128.803 16.7788 129.157 16.483 129.389 16.0886C129.627 15.6941 129.746 15.204 129.746 14.6181C129.746 14.0265 129.627 13.5276 129.389 13.1216C129.157 12.7156 128.8 12.4081 128.319 12.1993C127.843 11.9847 127.243 11.8774 126.518 11.8774H123.977V26.6166H120.209ZM129.833 18.5074L134.261 26.6166H130.102L125.769 18.5074H129.833Z" fill="white"/>
<path d="M113.341 8.79728H117.108V20.3694C117.108 21.6687 116.798 22.8056 116.177 23.7801C115.563 24.7546 114.701 25.5145 113.593 26.0597C112.485 26.5992 111.195 26.8689 109.721 26.8689C108.242 26.8689 106.949 26.5992 105.841 26.0597C104.733 25.5145 103.871 24.7546 103.257 23.7801C102.642 22.8056 102.334 21.6687 102.334 20.3694V8.79728H106.102V20.0475C106.102 20.7261 106.25 21.3294 106.546 21.8572C106.847 22.3851 107.271 22.7998 107.816 23.1015C108.361 23.4031 108.996 23.5539 109.721 23.5539C110.452 23.5539 111.087 23.4031 111.627 23.1015C112.172 22.7998 112.593 22.3851 112.888 21.8572C113.19 21.3294 113.341 20.7261 113.341 20.0475V8.79728Z" fill="white"/>
<path d="M99.6315 15.0345H95.8205C95.7509 14.5414 95.6088 14.1035 95.3942 13.7206C95.1795 13.332 94.904 13.0014 94.5676 12.7287C94.2312 12.4561 93.8425 12.2473 93.4017 12.1023C92.9666 11.9573 92.4939 11.8848 91.9834 11.8848C91.0611 11.8848 90.2578 12.1139 89.5733 12.5721C88.8888 13.0246 88.3581 13.6858 87.9811 14.5559C87.604 15.4202 87.4155 16.4701 87.4155 17.7056C87.4155 18.9759 87.604 20.0432 87.9811 20.9075C88.3639 21.7718 88.8975 22.4244 89.582 22.8652C90.2665 23.3061 91.0582 23.5265 91.9573 23.5265C92.462 23.5265 92.9289 23.4598 93.3582 23.3264C93.7932 23.1929 94.179 22.9986 94.5154 22.7434C94.8518 22.4824 95.1302 22.1662 95.3507 21.795C95.5769 21.4238 95.7335 21.0003 95.8205 20.5247L99.6315 20.5421C99.5329 21.36 99.2863 22.1488 98.8919 22.9087C98.5033 23.6628 97.9783 24.3386 97.3171 24.936C96.6616 25.5277 95.8785 25.9975 94.9678 26.3456C94.0629 26.6878 93.0391 26.8589 91.8964 26.8589C90.3071 26.8589 88.8859 26.4993 87.633 25.78C86.3859 25.0607 85.3998 24.0195 84.6747 22.6564C83.9555 21.2933 83.5958 19.643 83.5958 17.7056C83.5958 15.7624 83.9613 14.1093 84.6921 12.7461C85.423 11.383 86.4149 10.3447 87.6678 9.63124C88.9207 8.91196 90.3303 8.55233 91.8964 8.55233C92.9289 8.55233 93.886 8.69734 94.7677 8.98737C95.6552 9.2774 96.4412 9.70084 97.1256 10.2577C97.8101 10.8087 98.367 11.4845 98.7962 12.285C99.2312 13.0855 99.5097 14.002 99.6315 15.0345Z" fill="white"/>
<path d="M68.9071 26.6166V8.79728H80.9143V11.9035H72.6746V16.1495H80.2965V19.2557H72.6746V23.5104H80.9491V26.6166H68.9071Z" fill="white"/>
<path d="M62.5181 13.9207C62.4485 13.2189 62.1498 12.6736 61.6219 12.285C61.0941 11.8964 60.3777 11.702 59.4728 11.702C58.858 11.702 58.3388 11.789 57.9154 11.9631C57.4919 12.1313 57.1671 12.3662 56.9409 12.6678C56.7205 12.9695 56.6102 13.3117 56.6102 13.6945C56.5986 14.0136 56.6653 14.292 56.8104 14.5298C56.9612 14.7676 57.1671 14.9736 57.4281 15.1476C57.6891 15.3158 57.9908 15.4637 58.333 15.5913C58.6752 15.7131 59.0407 15.8175 59.4293 15.9045L61.0303 16.2874C61.8075 16.4614 62.521 16.6934 63.1707 16.9834C63.8203 17.2735 64.383 17.6302 64.8586 18.0537C65.3343 18.4771 65.7026 18.9759 65.9636 19.5502C66.2305 20.1245 66.3668 20.7828 66.3726 21.5253C66.3668 22.6158 66.0884 23.5613 65.5373 24.3618C64.9921 25.1564 64.2032 25.7742 63.1707 26.215C62.144 26.6501 60.9056 26.8676 59.4554 26.8676C58.0169 26.8676 56.764 26.6472 55.6967 26.2063C54.6351 25.7655 53.8057 25.1129 53.2082 24.2487C52.6166 23.3786 52.3062 22.3026 52.2772 21.0206H55.9229C55.9635 21.6181 56.1346 22.1169 56.4362 22.5172C56.7437 22.9116 57.1526 23.2103 57.663 23.4134C58.1793 23.6106 58.7622 23.7092 59.4119 23.7092C60.05 23.7092 60.6039 23.6164 61.0738 23.4308C61.5494 23.2452 61.9178 22.987 62.1788 22.6564C62.4398 22.3258 62.5703 21.9458 62.5703 21.5166C62.5703 21.1163 62.4514 20.7799 62.2136 20.5073C61.9816 20.2347 61.6393 20.0026 61.1869 19.8112C60.7402 19.6198 60.1921 19.4458 59.5424 19.2892L57.6021 18.8019C56.0998 18.4365 54.9136 17.8651 54.0435 17.0879C53.1734 16.3106 52.7413 15.2636 52.7471 13.9469C52.7413 12.8679 53.0284 11.9254 53.6085 11.1191C54.1943 10.3128 54.9977 9.68344 56.0186 9.231C57.0395 8.77855 58.1996 8.55233 59.4989 8.55233C60.8214 8.55233 61.9758 8.77855 62.9619 9.231C63.9538 9.68344 64.7252 10.3128 65.2763 11.1191C65.8273 11.9254 66.1116 12.8592 66.129 13.9207H62.5181Z" fill="white"/>
<path d="M149.027 34.1478V42.2938H147.54L143.996 37.1668H143.936V42.2938H142.214V34.1478H143.725L147.241 39.2709H147.313V34.1478H149.027Z" fill="white"/>
<path d="M140.939 38.2179C140.939 39.1062 140.771 39.8619 140.434 40.4851C140.1 41.1082 139.644 41.5842 139.066 41.913C138.49 42.2391 137.843 42.4022 137.125 42.4022C136.401 42.4022 135.751 42.2378 135.176 41.909C134.6 41.5802 134.145 41.1042 133.811 40.4811C133.477 39.8579 133.31 39.1035 133.31 38.2179C133.31 37.3296 133.477 36.5738 133.811 35.9507C134.145 35.3275 134.6 34.8529 135.176 34.5267C135.751 34.1979 136.401 34.0335 137.125 34.0335C137.843 34.0335 138.49 34.1979 139.066 34.5267C139.644 34.8529 140.1 35.3275 140.434 35.9507C140.771 36.5738 140.939 37.3296 140.939 38.2179ZM139.193 38.2179C139.193 37.6425 139.107 37.1572 138.934 36.7621C138.765 36.367 138.525 36.0674 138.214 35.8632C137.904 35.659 137.541 35.5569 137.125 35.5569C136.708 35.5569 136.345 35.659 136.035 35.8632C135.724 36.0674 135.483 36.367 135.311 36.7621C135.141 37.1572 135.056 37.6425 135.056 38.2179C135.056 38.7933 135.141 39.2785 135.311 39.6736C135.483 40.0687 135.724 40.3684 136.035 40.5726C136.345 40.7767 136.708 40.8788 137.125 40.8788C137.541 40.8788 137.904 40.7767 138.214 40.5726C138.525 40.3684 138.765 40.0687 138.934 39.6736C139.107 39.2785 139.193 38.7933 139.193 38.2179Z" fill="white"/>
<path d="M132.036 34.1478V42.2938H130.313V34.1478H132.036Z" fill="white"/>
<path d="M122.52 35.5678V34.1478H129.21V35.5678H126.716V42.2938H125.014V35.5678H122.52Z" fill="white"/>
<path d="M115.58 42.2938V34.1478H118.794C119.412 34.1478 119.938 34.2658 120.373 34.5018C120.808 34.7352 121.139 35.06 121.367 35.4763C121.598 35.89 121.713 36.3673 121.713 36.9082C121.713 37.4492 121.597 37.9265 121.363 38.3401C121.13 38.7538 120.792 39.076 120.349 39.3067C119.909 39.5374 119.376 39.6527 118.75 39.6527H116.701V38.2725H118.471C118.803 38.2725 119.076 38.2155 119.291 38.1015C119.508 37.9848 119.67 37.8244 119.776 37.6202C119.885 37.4134 119.939 37.176 119.939 36.9082C119.939 36.6378 119.885 36.4018 119.776 36.2002C119.67 35.996 119.508 35.8383 119.291 35.7269C119.073 35.6129 118.798 35.5559 118.464 35.5559H117.302V42.2938H115.58Z" fill="white"/>
<path d="M106.984 34.1478H108.913L110.771 37.656H110.85L112.708 34.1478H114.637L111.666 39.4141V42.2938H109.955V39.4141L106.984 34.1478Z" fill="white"/>
<path d="M100.45 42.2938V34.1478H103.664C104.279 34.1478 104.804 34.2579 105.239 34.478C105.677 34.6954 106.009 35.0043 106.237 35.4047C106.468 35.8025 106.584 36.2705 106.584 36.8088C106.584 37.3497 106.467 37.8151 106.234 38.2049C106 38.592 105.662 38.889 105.219 39.0959C104.779 39.3027 104.246 39.4061 103.62 39.4061H101.468V38.0219H103.342C103.671 38.0219 103.944 37.9769 104.161 37.8867C104.379 37.7965 104.54 37.6613 104.646 37.481C104.755 37.3007 104.81 37.0766 104.81 36.8088C104.81 36.5383 104.755 36.3103 104.646 36.1247C104.54 35.939 104.377 35.7985 104.157 35.703C103.94 35.6049 103.665 35.5559 103.334 35.5559H102.172V42.2938H100.45ZM104.849 38.5867L106.874 42.2938H104.973L102.992 38.5867H104.849Z" fill="white"/>
<path d="M99.2158 36.9968H97.4737C97.4419 36.7714 97.3769 36.5712 97.2788 36.3962C97.1807 36.2185 97.0547 36.0674 96.9009 35.9427C96.7471 35.8181 96.5695 35.7226 96.3679 35.6563C96.1691 35.59 95.9529 35.5569 95.7196 35.5569C95.298 35.5569 94.9307 35.6616 94.6178 35.8711C94.3049 36.078 94.0623 36.3802 93.8899 36.778C93.7176 37.1731 93.6314 37.6531 93.6314 38.2179C93.6314 38.7986 93.7176 39.2865 93.8899 39.6816C94.0649 40.0767 94.3089 40.375 94.6218 40.5765C94.9347 40.7781 95.2966 40.8788 95.7077 40.8788C95.9384 40.8788 96.1518 40.8483 96.348 40.7874C96.5469 40.7264 96.7233 40.6375 96.8771 40.5209C97.0309 40.4015 97.1581 40.257 97.2589 40.0873C97.3623 39.9176 97.4339 39.724 97.4737 39.5066L99.2158 39.5145C99.1708 39.8884 99.0581 40.2491 98.8777 40.5964C98.7001 40.9411 98.4601 41.2501 98.1578 41.5232C97.8582 41.7937 97.5002 42.0085 97.0839 42.1676C96.6702 42.324 96.2022 42.4022 95.6798 42.4022C94.9533 42.4022 94.3036 42.2378 93.7308 41.909C93.1607 41.5802 92.7099 41.1042 92.3785 40.4811C92.0497 39.8579 91.8853 39.1035 91.8853 38.2179C91.8853 37.3296 92.0523 36.5738 92.3864 35.9507C92.7205 35.3275 93.174 34.8529 93.7467 34.5267C94.3195 34.1979 94.9639 34.0335 95.6798 34.0335C96.1518 34.0335 96.5893 34.0998 96.9924 34.2324C97.3981 34.365 97.7574 34.5585 98.0703 34.8131C98.3832 35.065 98.6378 35.3739 98.834 35.7399C99.0329 36.1058 99.1602 36.5248 99.2158 36.9968Z" fill="white"/>
<path d="M90.6053 34.1478V42.2938H89.1177L85.5737 37.1668H85.514V42.2938H83.7917V34.1478H85.3032L88.8193 39.2709H88.8909V34.1478H90.6053Z" fill="white"/>
<path d="M76.9352 42.2938V34.1478H82.4242V35.5678H78.6575V37.5088H82.1418V38.9288H78.6575V40.8738H82.4401V42.2938H76.9352Z" fill="white"/>
<path d="M67.9865 42.2938V34.1478H69.7087V40.8738H73.201V42.2938H67.9865Z" fill="white"/>
<path d="M65.0684 36.4876C65.0366 36.1668 64.9 35.9175 64.6587 35.7399C64.4174 35.5622 64.0899 35.4734 63.6763 35.4734C63.3952 35.4734 63.1579 35.5131 62.9643 35.5927C62.7707 35.6696 62.6222 35.777 62.5188 35.9149C62.418 36.0528 62.3676 36.2092 62.3676 36.3842C62.3623 36.5301 62.3928 36.6574 62.4591 36.7661C62.5281 36.8748 62.6222 36.9689 62.7415 37.0485C62.8609 37.1254 62.9988 37.193 63.1552 37.2513C63.3116 37.307 63.4787 37.3547 63.6564 37.3945L64.3882 37.5695C64.7436 37.6491 65.0697 37.7551 65.3667 37.8877C65.6637 38.0203 65.9209 38.1834 66.1383 38.377C66.3558 38.5705 66.5242 38.7986 66.6435 39.0611C66.7655 39.3236 66.8278 39.6246 66.8304 39.964C66.8278 40.4625 66.7005 40.8947 66.4486 41.2607C66.1993 41.624 65.8387 41.9064 65.3667 42.1079C64.8974 42.3068 64.3312 42.4062 63.6683 42.4062C63.0107 42.4062 62.4379 42.3054 61.95 42.1039C61.4648 41.9024 61.0856 41.6041 60.8124 41.209C60.542 40.8112 60.4001 40.3193 60.3868 39.7333H62.0534C62.072 40.0064 62.1502 40.2345 62.2881 40.4174C62.4286 40.5978 62.6156 40.7343 62.8489 40.8271C63.0849 40.9173 63.3514 40.9624 63.6484 40.9624C63.9401 40.9624 64.1933 40.9199 64.4081 40.8351C64.6256 40.7502 64.7939 40.6322 64.9133 40.4811C65.0326 40.3299 65.0923 40.1563 65.0923 39.96C65.0923 39.7771 65.0379 39.6233 64.9292 39.4986C64.8231 39.374 64.6667 39.2679 64.4598 39.1804C64.2556 39.0929 64.0051 39.0134 63.7081 38.9418L62.8211 38.719C62.1343 38.552 61.592 38.2908 61.1943 37.9355C60.7965 37.5801 60.599 37.1015 60.6016 36.4996C60.599 36.0064 60.7302 35.5755 60.9954 35.2069C61.2632 34.8383 61.6305 34.5506 62.0972 34.3438C62.5639 34.1369 63.0942 34.0335 63.6882 34.0335C64.2928 34.0335 64.8205 34.1369 65.2712 34.3438C65.7247 34.5506 66.0774 34.8383 66.3293 35.2069C66.5812 35.5755 66.7111 36.0024 66.7191 36.4876H65.0684Z" fill="white"/>
<path d="M57.7261 36.4876C57.6943 36.1668 57.5577 35.9175 57.3164 35.7399C57.0751 35.5622 56.7476 35.4734 56.334 35.4734C56.0529 35.4734 55.8156 35.5131 55.622 35.5927C55.4284 35.6696 55.2799 35.777 55.1765 35.9149C55.0757 36.0528 55.0254 36.2092 55.0254 36.3842C55.0201 36.5301 55.0506 36.6574 55.1168 36.7661C55.1858 36.8748 55.2799 36.9689 55.3993 37.0485C55.5186 37.1254 55.6565 37.193 55.8129 37.2513C55.9694 37.307 56.1364 37.3547 56.3141 37.3945L57.0459 37.5695C57.4013 37.6491 57.7274 37.7551 58.0244 37.8877C58.3214 38.0203 58.5786 38.1834 58.7961 38.377C59.0135 38.5705 59.1819 38.7986 59.3012 39.0611C59.4232 39.3236 59.4855 39.6246 59.4882 39.964C59.4855 40.4625 59.3582 40.8947 59.1063 41.2607C58.8571 41.624 58.4964 41.9064 58.0244 42.1079C57.5551 42.3068 56.9889 42.4062 56.326 42.4062C55.6684 42.4062 55.0956 42.3054 54.6077 42.1039C54.1225 41.9024 53.7433 41.6041 53.4702 41.209C53.1997 40.8112 53.0578 40.3193 53.0446 39.7333H54.7111C54.7297 40.0064 54.8079 40.2345 54.9458 40.4174C55.0864 40.5978 55.2733 40.7343 55.5066 40.8271C55.7426 40.9173 56.0091 40.9624 56.3061 40.9624C56.5978 40.9624 56.851 40.9199 57.0658 40.8351C57.2833 40.7502 57.4517 40.6322 57.571 40.4811C57.6903 40.3299 57.75 40.1563 57.75 39.96C57.75 39.7771 57.6956 39.6233 57.5869 39.4986C57.4808 39.374 57.3244 39.2679 57.1175 39.1804C56.9134 39.0929 56.6628 39.0134 56.3658 38.9418L55.4788 38.719C54.792 38.552 54.2497 38.2908 53.852 37.9355C53.4542 37.5801 53.2567 37.1015 53.2593 36.4996C53.2567 36.0064 53.3879 35.5755 53.6531 35.2069C53.9209 34.8383 54.2882 34.5506 54.7549 34.3438C55.2216 34.1369 55.7519 34.0335 56.3459 34.0335C56.9505 34.0335 57.4782 34.1369 57.929 34.3438C58.3824 34.5506 58.7351 34.8383 58.987 35.2069C59.2389 35.5755 59.3688 36.0024 59.3768 36.4876H57.7261Z" fill="white"/>
</svg>
