<svg width="425" height="51" viewBox="0 0 425 51" fill="none" xmlns="http://www.w3.org/2000/svg">
<path d="M198.655 24.1131L196.127 15.279H198.167L199.63 21.4172H199.703L201.317 15.279H203.063L204.673 21.4301H204.75L206.212 15.279H208.253L205.725 24.1131H203.905L202.222 18.3372H202.153L200.475 24.1131H198.655ZM212.471 24.2425C211.801 24.2425 211.222 24.1002 210.733 23.8155C210.247 23.5279 209.872 23.1282 209.607 22.6163C209.342 22.1016 209.21 21.5048 209.21 20.8261C209.21 20.1418 209.342 19.5436 209.607 19.0318C209.872 18.517 210.247 18.1173 210.733 17.8326C211.222 17.545 211.801 17.4012 212.471 17.4012C213.142 17.4012 213.72 17.545 214.205 17.8326C214.694 18.1173 215.071 18.517 215.336 19.0318C215.6 19.5436 215.732 20.1418 215.732 20.8261C215.732 21.5048 215.6 22.1016 215.336 22.6163C215.071 23.1282 214.694 23.5279 214.205 23.8155C213.72 24.1002 213.142 24.2425 212.471 24.2425ZM212.48 22.819C212.785 22.819 213.039 22.7328 213.243 22.5602C213.448 22.3848 213.602 22.1462 213.705 21.8441C213.811 21.5422 213.864 21.1986 213.864 20.8132C213.864 20.4279 213.811 20.0842 213.705 19.7823C213.602 19.4804 213.448 19.2417 213.243 19.0662C213.039 18.8909 212.785 18.8032 212.48 18.8032C212.173 18.8032 211.913 18.8909 211.703 19.0662C211.497 19.2417 211.34 19.4804 211.234 19.7823C211.13 20.0842 211.078 20.4279 211.078 20.8132C211.078 21.1986 211.13 21.5422 211.234 21.8441C211.34 22.1462 211.497 22.3848 211.703 22.5602C211.913 22.7328 212.173 22.819 212.48 22.819ZM217.899 24.1131V17.4875H219.68V18.6435H219.75C219.87 18.2323 220.073 17.9217 220.358 17.7118C220.642 17.499 220.97 17.3926 221.341 17.3926C221.433 17.3926 221.533 17.3984 221.638 17.4098C221.745 17.4214 221.839 17.4372 221.92 17.4573V19.0878C221.833 19.062 221.714 19.039 221.561 19.0189C221.409 18.9987 221.269 18.9887 221.143 18.9887C220.872 18.9887 220.631 19.0476 220.418 19.1655C220.208 19.2805 220.041 19.4416 219.918 19.6486C219.797 19.8556 219.737 20.0943 219.737 20.3646V24.1131H217.899ZM225.506 22.2066L225.511 20.0023H225.778L227.9 17.4875H230.009L227.158 20.8176H226.723L225.506 22.2066ZM223.841 24.1131V15.279H225.678V24.1131H223.841ZM227.982 24.1131L226.032 21.2273L227.257 19.929L230.134 24.1131H227.982ZM231.883 24.1131V17.4875H233.72V24.1131H231.883ZM232.806 16.6335C232.533 16.6335 232.298 16.5429 232.103 16.3617C231.91 16.1776 231.813 15.9577 231.813 15.7017C231.813 15.4486 231.91 15.2315 232.103 15.0504C232.298 14.8663 232.533 14.7743 232.806 14.7743C233.079 14.7743 233.312 14.8663 233.504 15.0504C233.7 15.2315 233.798 15.4486 233.798 15.7017C233.798 15.9577 233.7 16.1776 233.504 16.3617C233.312 16.5429 233.079 16.6335 232.806 16.6335ZM238.001 20.2827V24.1131H236.164V17.4875H237.915V18.6564H237.993C238.139 18.2711 238.386 17.9663 238.731 17.742C239.075 17.5148 239.494 17.4012 239.986 17.4012C240.446 17.4012 240.847 17.5019 241.189 17.7032C241.532 17.9045 241.797 18.1921 241.987 18.5659C242.177 18.9369 242.272 19.3797 242.272 19.8945V24.1131H240.434V20.2223C240.438 19.8168 240.333 19.5005 240.124 19.2733C239.914 19.0432 239.625 18.9282 239.257 18.9282C239.009 18.9282 238.791 18.9815 238.601 19.0878C238.414 19.1942 238.268 19.3495 238.161 19.5537C238.058 19.755 238.005 19.998 238.001 20.2827ZM247.677 26.7357C247.082 26.7357 246.571 26.6538 246.146 26.4898C245.723 26.3288 245.387 26.1088 245.136 25.8299C244.886 25.5509 244.724 25.2375 244.649 24.8895L246.349 24.6609C246.4 24.7932 246.482 24.9169 246.594 25.0318C246.706 25.1469 246.855 25.2389 247.039 25.3079C247.225 25.3798 247.452 25.4158 247.72 25.4158C248.12 25.4158 248.449 25.318 248.708 25.1225C248.97 24.9298 249.1 24.6063 249.1 24.1519V22.9398H249.023C248.942 23.1238 248.822 23.2979 248.66 23.4618C248.5 23.6257 248.292 23.7594 248.039 23.8629C247.786 23.9665 247.485 24.0182 247.133 24.0182C246.636 24.0182 246.183 23.9031 245.774 23.6731C245.369 23.4402 245.046 23.085 244.804 22.6077C244.566 22.1274 244.446 21.5207 244.446 20.7874C244.446 20.0368 244.568 19.4099 244.813 18.9067C245.057 18.4034 245.382 18.0267 245.787 17.7765C246.196 17.5263 246.643 17.4012 247.129 17.4012C247.5 17.4012 247.811 17.4645 248.061 17.5911C248.311 17.7147 248.513 17.87 248.665 18.0569C248.82 18.2409 248.94 18.4221 249.023 18.6004H249.091V17.4875H250.916V24.1778C250.916 24.7414 250.778 25.2131 250.502 25.5927C250.226 25.9723 249.844 26.2569 249.355 26.4467C248.869 26.6394 248.31 26.7357 247.677 26.7357ZM247.716 22.6379C248.012 22.6379 248.262 22.5645 248.467 22.4179C248.673 22.2683 248.831 22.0556 248.94 21.7795C249.053 21.5006 249.109 21.167 249.109 20.7788C249.109 20.3905 249.054 20.054 248.945 19.7694C248.835 19.4818 248.678 19.2589 248.471 19.1008C248.264 18.9426 248.012 18.8636 247.716 18.8636C247.413 18.8636 247.159 18.9455 246.953 19.1094C246.745 19.2705 246.588 19.4948 246.482 19.7823C246.376 20.0699 246.323 20.402 246.323 20.7788C246.323 21.1612 246.376 21.4919 246.482 21.7708C246.592 22.0469 246.748 22.2611 246.953 22.4136C247.159 22.5631 247.413 22.6379 247.716 22.6379ZM211.312 36.26L209.509 29.6344H211.368L212.395 34.086H212.455L213.525 29.6344H215.35L216.437 34.0601H216.492L217.502 29.6344H219.357L217.558 36.26H215.613L214.474 32.0931H214.392L213.254 36.26H211.312ZM221.309 36.26V29.6344H223.146V36.26H221.309ZM222.232 28.7804C221.959 28.7804 221.724 28.6898 221.529 28.5086C221.337 28.3245 221.24 28.1046 221.24 27.8486C221.24 27.5955 221.337 27.3784 221.529 27.1973C221.724 27.0133 221.959 26.9212 222.232 26.9212C222.505 26.9212 222.738 27.0133 222.93 27.1973C223.126 27.3784 223.225 27.5955 223.225 27.8486C223.225 28.1046 223.126 28.3245 222.93 28.5086C222.738 28.6898 222.505 28.7804 222.232 28.7804ZM229.114 29.6344V31.0147H225.125V29.6344H229.114ZM226.03 28.047H227.868V34.224C227.868 34.3937 227.893 34.526 227.945 34.6209C227.997 34.7129 228.069 34.7776 228.161 34.815C228.256 34.8524 228.365 34.871 228.489 34.871C228.575 34.871 228.661 34.8639 228.748 34.8495C228.834 34.8322 228.9 34.8193 228.946 34.8106L229.236 36.178C229.144 36.2068 229.013 36.2399 228.847 36.2773C228.68 36.3175 228.477 36.342 228.239 36.3506C227.796 36.3679 227.407 36.3089 227.074 36.1738C226.744 36.0386 226.486 35.8286 226.302 35.544C226.118 35.2593 226.027 34.8998 226.03 34.4656V28.047ZM233.263 32.4296V36.26H231.425V27.4259H233.211V30.8034H233.289C233.438 30.4123 233.68 30.106 234.014 29.8846C234.347 29.6603 234.766 29.5481 235.269 29.5481C235.729 29.5481 236.13 29.6488 236.472 29.8501C236.818 30.0485 237.085 30.3347 237.275 30.7085C237.468 31.0794 237.562 31.5238 237.56 32.0414V36.26H235.722V32.3692C235.725 31.9609 235.621 31.6431 235.411 31.4159C235.204 31.1888 234.913 31.0751 234.54 31.0751C234.29 31.0751 234.068 31.1284 233.876 31.2347C233.686 31.3411 233.536 31.4964 233.427 31.7006C233.32 31.9019 233.266 32.1449 233.263 32.4296Z" fill="#DFDFDF"/>
<mask id="mask0_1_573" style="mask-type:luminance" maskUnits="userSpaceOnUse" x="277" y="15" width="135" height="21">
<path d="M411.9 15.6479H277.681V35.1229H411.9V15.6479Z" fill="white"/>
</mask>
<g mask="url(#mask0_1_573)">
<path d="M375.928 16.3851C375.454 16.4671 375.11 16.5492 374.851 16.9591C374.508 17.3692 374.55 17.9841 374.508 18.5171V27.6192C374.55 28.4391 374.55 28.8491 374.809 29.1361C375.11 29.4641 375.584 29.5051 376.444 29.5051H379.673C380.405 29.5051 380.749 29.4231 381.051 29.2591C381.61 28.9721 381.696 28.3161 381.739 28.1931H382.084V31.1041H369.901V30.7761C370.375 30.6531 370.72 30.5711 371.021 30.1611C371.322 29.7101 371.322 29.1771 371.322 28.1521V18.5171C371.322 17.9021 371.408 17.2461 370.891 16.7951C370.547 16.4671 370.031 16.4261 369.901 16.3851V16.0571H375.885V16.3851H375.928Z" fill="white"/>
<path d="M390.853 31.5115C390.724 31.3885 390.594 31.3065 390.465 31.2245C390.122 30.9375 389.82 30.6915 389.561 29.8715C389.303 30.1175 389.088 30.3225 388.786 30.5275C388.356 30.8555 387.495 31.4295 386.118 31.4295C385.902 31.4295 385.343 31.4295 384.783 31.2245C383.578 30.8555 382.889 29.8306 382.889 28.6825C382.889 28.1085 383.062 27.6985 383.147 27.5345C383.75 26.3455 385.171 25.8945 386.376 25.6486L387.151 25.4435C387.366 25.3615 387.581 25.3205 387.84 25.2385C388.571 24.9925 389.303 24.6235 389.303 23.8035C389.303 23.1475 388.959 22.3275 387.495 22.3275C387.065 22.3275 385.902 22.4505 384.912 23.2295C384.654 23.4756 384.439 23.6806 384.223 23.9675H383.879L384.267 21.7125C384.525 21.6305 384.783 21.5075 385.085 21.4255C385.515 21.3026 386.72 21.0156 388.098 21.0156C388.614 21.0156 391.369 20.9745 391.929 23.3115C392.058 23.7625 392.058 24.0905 392.058 24.9515V27.2885C392.058 27.9035 392.058 28.2315 392.144 28.5185C392.403 29.1745 393.048 29.3795 393.221 29.4615L393.393 29.7075L390.853 31.5115ZM389.346 25.7715C388.959 26.0176 388.873 26.0995 388.399 26.2635C387.84 26.4686 387.237 26.5915 386.72 26.8785C386.505 27.0015 385.645 27.4935 385.645 28.3545C385.687 29.1335 386.333 29.6665 387.108 29.6665C387.926 29.6665 388.658 29.0926 388.83 28.9695C388.959 28.8875 389.132 28.7235 389.346 28.4775V25.7715Z" fill="white"/>
<path d="M411.861 21.7529C411.646 21.8349 411.43 21.9169 411.387 21.9579C410.957 22.2039 410.785 22.4908 410.397 23.2699L406.437 31.3059H405.103L402.476 25.4839L399.636 31.2649H398.344L394.641 23.2289C394.556 23.0239 394.47 22.8599 394.384 22.6549C394.169 22.2449 394.039 21.9579 393.179 21.6708V21.3839H398.387L398.344 21.6708C398.258 21.7119 398.129 21.7119 397.957 21.7939C397.612 21.9579 397.44 22.2449 397.44 22.6139C397.44 22.8189 397.526 23.0239 397.569 23.2289L399.636 28.0258L401.701 23.6799L401.185 22.6549C400.797 21.8759 400.41 21.7939 399.98 21.7119V21.4249H405.146V21.7119C404.93 21.7529 404.758 21.8349 404.715 21.8759C404.414 22.0399 404.284 22.3269 404.284 22.6959C404.284 23.0239 404.414 23.2699 404.456 23.3929L406.523 28.1079L408.676 23.3929C408.718 23.3108 408.891 22.9829 408.891 22.6549C408.891 21.9169 408.116 21.7939 407.943 21.7529V21.4659H411.904V21.7529H411.861Z" fill="white"/>
<path d="M283.664 16.2187C283.191 16.3007 282.846 16.3828 282.587 16.7927C282.286 17.2437 282.33 17.8587 282.286 18.3508V27.4527C282.33 28.2727 282.33 28.6827 282.587 28.9697C282.889 29.2977 283.362 29.3387 284.224 29.3387H287.452C288.184 29.3387 288.528 29.2567 288.83 29.0927C289.39 28.8057 289.476 28.1497 289.518 28.0267H289.864V30.9377H277.681V30.6097C278.155 30.4866 278.498 30.4047 278.799 29.9947C279.101 29.5437 279.101 29.0107 279.101 27.9857V18.3097C279.101 17.6947 279.187 17.0387 278.671 16.5877C278.327 16.2598 277.809 16.2187 277.681 16.1778V15.8907H283.664V16.2187Z" fill="white"/>
<path d="M300.895 29.5408C299.345 31.2629 297.149 31.2629 296.418 31.2629C295.298 31.2629 294.567 31.0989 294.093 30.9349C292.027 30.1969 290.907 28.1879 290.907 26.1379C290.907 25.4819 291.037 23.8829 292.329 22.5709C292.974 21.9149 294.308 20.8899 296.633 20.8899C297.021 20.8899 297.967 20.9308 298.957 21.2588C301.153 22.0788 302.229 24.0469 302.186 26.2199C302.143 26.7938 302.013 28.2698 300.895 29.5408ZM298.786 24.0058C298.614 23.5959 298.441 23.3089 298.355 23.1449C297.924 22.5299 297.236 22.1609 296.418 22.1609C295.944 22.1609 295.514 22.3249 295.126 22.5709C293.835 23.5139 293.835 25.6049 293.835 25.8099C293.878 27.4088 294.394 28.5979 294.782 29.0898C295.428 29.9098 296.288 30.0738 296.675 30.0738C298.011 30.0738 299.043 29.0078 299.13 26.5889C299.172 26.2199 299.216 25.1129 298.786 24.0058Z" fill="white"/>
<path d="M312.218 24.4223L311.917 24.3813C311.788 24.0944 311.702 23.8073 311.573 23.5613C311.272 22.9873 310.669 22.1263 309.076 22.1263C306.967 22.1263 306.019 23.7254 306.019 25.5293C306.019 25.8163 306.019 26.2674 306.235 26.8823C306.924 28.9733 308.731 29.2193 309.549 29.2193C309.765 29.2193 310.195 29.1783 310.755 29.0553C311.615 28.8094 312.175 28.3173 312.821 27.7023L313.165 27.9074C312.864 28.5633 312.735 28.7683 312.52 29.0963C311.142 31.1053 309.506 31.3103 308.43 31.3103C306.751 31.3103 305.804 30.7363 305.288 30.2853C304.599 29.7523 303.523 28.4813 303.523 26.3493C303.523 23.2744 305.761 20.9374 309.076 20.9374C309.506 20.9374 310.755 20.9783 311.96 21.5524C312.218 21.6753 312.348 21.7574 312.778 22.0033L312.218 24.4223Z" fill="white"/>
<path d="M324.91 21.5521C324.178 21.7981 323.964 22.0441 323.403 22.495L320.261 25.1601L324.566 29.4241C324.867 29.752 325.297 30.203 325.685 30.4491C325.857 30.572 325.857 30.572 325.986 30.6131V30.9001H324.35C323.36 30.8591 322.543 30.8181 321.724 30.203C321.509 30.0391 321.294 29.8341 320.864 29.4241L317.378 25.9391V29.0551C317.378 29.2601 317.378 29.4241 317.42 29.67C317.635 30.4491 318.41 30.572 318.669 30.6131V30.9001H313.373V30.6131C313.674 30.5311 313.891 30.49 314.148 30.3261C314.708 29.9161 314.664 29.383 314.664 28.8091V19.338C314.664 19.0511 314.664 18.7231 314.536 18.4771C314.449 18.2721 314.192 17.9441 313.674 17.9441C313.546 17.9441 313.459 17.985 313.245 17.985L313.116 17.7391L317.463 15.6481V25.57L320.605 22.9461C320.993 22.5771 321.25 22.413 321.25 22.0851C321.25 21.6341 320.649 21.593 320.605 21.5521V21.2651H324.954V21.5521H324.91Z" fill="white"/>
<path d="M333.48 23.8073L333.178 23.7663C333.178 23.7663 333.049 23.3153 332.921 23.0693C332.706 22.7003 332.188 22.1673 331.069 22.1673C330.338 22.2083 329.434 22.5774 329.434 23.4383C329.434 23.5613 329.477 23.7663 329.605 24.0533C329.821 24.4223 330.208 24.6683 330.983 24.9963L331.844 25.3654C332.318 25.5703 333.911 26.3083 333.911 28.0303C333.911 28.3173 333.824 28.8913 333.48 29.5474C332.963 30.4083 331.844 31.3103 329.563 31.3103C329.304 31.3103 329.046 31.2693 328.745 31.2693C327.755 31.1874 327.454 31.1053 326.55 30.8183V28.2763H326.894C326.98 28.5633 327.066 28.8503 327.238 29.0963C327.841 29.9163 328.831 29.9983 329.176 29.9983C330.639 29.9573 331.156 29.1783 331.113 28.5223C331.113 27.5383 330.166 27.0874 329.348 26.7183L328.4 26.3083C328.012 26.1033 327.669 25.9393 327.41 25.6524C327.153 25.4063 326.679 24.8324 326.679 23.8893C326.679 23.3153 326.851 22.7413 327.195 22.2904C327.669 21.6344 328.702 20.9374 330.639 20.9374C330.941 20.9374 331.931 20.9783 332.834 21.2243C333.049 21.3063 333.265 21.3883 333.48 21.4293V23.8073Z" fill="white"/>
<path d="M339.335 28.9731C339.335 29.6291 339.378 29.8751 339.636 30.1621C339.851 30.408 340.067 30.49 340.669 30.6541V30.941H335.203L335.245 30.6541C336.321 30.408 336.537 29.9981 336.537 28.9731V19.42C336.537 18.7231 336.494 17.9441 335.504 17.9441C335.418 17.9441 335.245 17.985 335.116 17.985L334.987 17.7391L339.335 15.6481V28.9731Z" fill="white"/>
<path d="M344.066 25.7726C344.066 26.2236 344.109 26.3465 344.109 26.5515C344.41 28.3555 345.874 29.2166 347.725 29.2166C349.834 29.2166 350.911 28.2735 351.513 27.7405L351.857 27.9865C351.385 28.8886 350.867 29.7905 349.963 30.4056C348.758 31.2665 347.466 31.2665 346.95 31.2665C346.39 31.2665 344.755 31.1845 343.377 30.0775C342.172 29.1345 341.612 27.5765 341.612 26.1005C341.612 25.7315 341.656 24.9115 342.044 24.0095C342.473 22.9845 343.851 20.8525 347.123 20.8525C348.887 20.8525 349.877 21.4675 350.437 21.9185C351.212 22.5745 351.987 23.6405 352.116 25.7315H344.066V25.7726ZM349.361 24.5835C349.274 23.9686 349.232 23.5585 348.844 23.0255C348.156 22.1645 347.294 22.1235 346.908 22.1235C346.219 22.1235 345.659 22.3286 345.142 22.7385C344.97 22.9025 344.755 23.1075 344.54 23.5175C344.367 23.7635 344.281 24.0095 344.152 24.5835H349.361Z" fill="white"/>
<path d="M364.692 21.5831C364.52 21.6242 364.39 21.6651 364.219 21.7881C363.787 22.1161 363.572 22.5671 363.357 23.0181L359.999 30.3161C359.871 30.6031 359.742 30.8901 359.612 31.1361C359.224 32.038 358.752 33.0631 358.063 33.76C357.374 34.4981 356.384 35.1131 354.275 35.1131C353.93 35.1131 353.543 35.0721 353.198 35.0721L353.413 32.6121H353.715C354.103 33.1861 354.533 33.6781 355.308 33.6781C355.609 33.6781 355.91 33.5551 355.996 33.5551C356.9 33.1451 357.546 31.8331 357.976 31.0542L353.973 22.8131C353.456 21.8701 353.328 21.7471 352.638 21.5422V21.2141H357.933L357.891 21.5422C357.675 21.5831 356.986 21.7471 356.986 22.4442C357.029 22.7311 357.116 23.0181 357.159 23.1001L359.354 28.1021L361.42 23.3871C361.592 22.9361 361.636 22.7721 361.636 22.5262C361.636 21.7471 360.861 21.6242 360.689 21.5831V21.2551H364.735L364.692 21.5831Z" fill="white"/>
</g>
<path d="M418.416 20.5407L418.497 19.2835L417.445 19.9884L417.009 19.2218L418.143 18.6695L417.009 18.1174L417.445 17.3507L418.497 18.0556L418.416 16.7985H419.289L419.205 18.0556L420.258 17.3507L420.693 18.1174L419.563 18.6695L420.693 19.2218L420.258 19.9884L419.205 19.2835L419.289 20.5407H418.416Z" fill="white"/>
<path d="M4 13.2571C4.95717 13.2571 5.91434 13.2571 6.90051 13.2571C8.0343 16.7865 9.15991 20.3197 10.2575 23.8702C10.4165 24.3843 10.5771 24.8974 10.7394 25.4096C11.0475 24.5982 11.3242 23.7754 11.5858 22.9348C11.6249 22.8101 11.664 22.6854 11.7042 22.5569C11.8308 22.1528 11.9569 21.7485 12.083 21.3443C12.1704 21.065 12.2579 20.7857 12.3453 20.5064C12.721 19.3067 13.0956 18.1065 13.4702 16.9062C13.6054 16.4728 13.7408 16.0394 13.8763 15.6061C13.9692 15.3082 14.062 15.0102 14.1547 14.7121C14.2104 14.5338 14.2661 14.3554 14.3217 14.1771C14.3468 14.0963 14.3718 14.0155 14.3977 13.9322C14.5686 13.386 14.5686 13.386 14.6636 13.2571C15.6208 13.2571 16.578 13.2571 17.5642 13.2571C17.5642 18.8333 17.5642 24.4096 17.5642 30.1548C16.7196 30.1548 15.875 30.1548 15.0049 30.1548C14.9767 26.7556 14.9486 23.3564 14.9196 19.8541C13.9035 23.1857 13.9035 23.1857 12.8931 26.5204C12.8617 26.6246 12.8303 26.7287 12.7979 26.8361C12.649 27.3293 12.5004 27.8225 12.352 28.3159C12.2987 28.4928 12.2453 28.6696 12.192 28.8465C12.1682 28.9259 12.1443 29.0054 12.1198 29.0872C12.0098 29.4517 11.8931 29.8021 11.7631 30.1548C11.1156 30.1548 10.4681 30.1548 9.80102 30.1548C9.54975 29.473 9.30915 28.8183 9.10389 28.1145C9.07999 28.0339 9.0561 27.9532 9.03149 27.8702C8.9802 27.697 8.92907 27.5238 8.87808 27.3505C8.73988 26.8809 8.60045 26.412 8.46107 25.9431C8.41727 25.7956 8.41727 25.7956 8.37258 25.6451C7.80784 23.7472 7.2238 21.8598 6.64458 19.9699C6.61643 23.3309 6.58828 26.692 6.55927 30.1548C5.71471 30.1548 4.87015 30.1548 4 30.1548C4 24.5786 4 19.0023 4 13.2571Z" fill="white"/>
<path d="M67.2964 12.3312C68.1409 12.3312 68.9855 12.3312 69.8556 12.3312C69.8556 18.213 69.8556 24.0949 69.8556 30.1549C69.0111 30.1549 68.1665 30.1549 67.2964 30.1549C67.2682 29.6202 67.24 29.0855 67.211 28.5346C67.1583 28.6348 67.1055 28.7351 67.0511 28.8384C66.493 29.7458 65.5799 30.2294 64.7371 30.3864C63.4042 30.4919 62.2543 30.1737 61.2234 28.9758C60.2042 27.6624 59.6483 25.9848 59.5899 24.0809C59.5631 21.7832 59.8358 19.8684 61.0385 18.1439C61.3373 17.7613 61.6486 17.4627 62.0072 17.1922C62.0666 17.1472 62.126 17.1021 62.1871 17.0557C63.1578 16.3973 64.3303 16.342 65.3672 16.7184C66.0506 17.0432 66.6947 17.5333 67.211 18.2339C67.2392 16.286 67.2673 14.3381 67.2964 12.3312ZM62.6897 21.0116C62.2007 22.0271 62.1077 23.1395 62.2258 24.3246C62.4031 25.4301 62.8696 26.2658 63.5428 26.9142C64.0974 27.3808 64.6963 27.348 65.3342 27.2614C65.9844 27.0409 66.5622 26.4674 66.9188 25.699C67.3303 24.6239 67.4334 23.4692 67.238 22.2757C66.9621 21.1636 66.5386 20.3829 65.7608 19.8542C64.6125 19.1272 63.4647 19.7986 62.6897 21.0116Z" fill="white"/>
<path d="M51.989 18.1257C52.8785 19.2653 53.4933 20.777 53.5823 22.4532C53.6247 24.8704 53.4143 26.6732 52.1519 28.4974C51.0774 29.9008 49.7535 30.4326 48.2885 30.4211C46.8439 30.3694 45.7067 29.6927 44.695 28.303C44.6215 28.207 44.6215 28.207 44.5464 28.109C43.6846 26.8884 43.4157 25.0685 43.3834 23.4348C43.4149 21.717 43.7905 20.3054 44.5244 18.9282C44.5877 18.8089 44.6511 18.6895 44.7163 18.5665C46.5862 15.9145 49.938 15.8258 51.989 18.1257ZM46.6465 20.6715C45.9868 21.7926 45.9723 23.1138 46.06 24.4836C46.1532 25.3694 46.4405 26.0588 46.9131 26.6827C47.5942 27.3356 48.249 27.5083 49.0714 27.336C49.7476 27.0932 50.2597 26.4648 50.6447 25.6885C51.077 24.5073 51.0841 22.9327 50.7893 21.6842C50.4861 20.7597 50.0406 20.1417 49.3594 19.728C48.3304 19.2531 47.3949 19.6105 46.6465 20.6715Z" fill="white"/>
<path d="M40.9387 17.7709C41.6966 18.7543 41.8703 19.5675 42.0477 21.0116C41.2313 21.0116 40.4149 21.0116 39.5738 21.0116C39.433 20.6297 39.2922 20.2477 39.1472 19.8542C38.6882 19.3871 38.2922 19.2323 37.7289 19.3045C37.2721 19.3978 37.2721 19.3978 36.8439 19.6227C36.6557 20.1111 36.6466 20.4858 36.7586 21.0116C37.2505 21.8292 38.25 22.0205 38.9659 22.2703C40.075 22.6632 41.1378 23.1379 41.8175 24.4697C42.1797 25.3597 42.1468 26.5142 41.9944 27.4857C41.718 28.557 41.1802 29.2907 40.4428 29.8005C39.1949 30.603 37.6361 30.6409 36.332 30.0392C35.2276 29.4235 34.5842 28.635 34.0447 27.1964C33.9434 26.7985 33.9434 26.7985 33.858 25.8726C34.7308 25.8726 35.6035 25.8726 36.5026 25.8726C36.6293 26.3309 36.6293 26.3309 36.7586 26.7985C37.19 27.3969 37.5855 27.6143 38.1928 27.6448C38.6239 27.6307 39.0206 27.5425 39.4031 27.2615C39.6188 26.8675 39.5873 26.457 39.5714 25.9843C39.3941 25.4984 38.95 25.323 38.5944 25.1465C38.49 25.1045 38.3856 25.0624 38.2781 25.019C38.2205 24.9952 38.1629 24.9714 38.1035 24.9469C37.7662 24.8083 37.4275 24.6773 37.0881 24.5484C35.0273 23.7567 35.0273 23.7567 34.4552 22.5162C34.0718 21.4984 34.0513 20.2994 34.2903 19.2068C34.7011 18.0039 35.3568 17.3376 36.2467 16.845C36.4725 16.7406 36.6943 16.6688 36.9292 16.6136C37.04 16.5873 37.1509 16.561 37.2651 16.534C38.5691 16.3687 39.9063 16.6019 40.9387 17.7709Z" fill="white"/>
<path d="M31.2996 17.7709C32.0688 18.7401 32.2935 19.6058 32.4086 21.0116C31.5922 21.0116 30.7758 21.0116 29.9346 21.0116C29.822 20.6678 29.7094 20.3241 29.5934 19.9699C29.2851 19.5168 28.9302 19.3448 28.4844 19.2755C28.0345 19.2755 27.6467 19.3399 27.2901 19.7385C27.0909 20.0717 27.0341 20.2405 27.0341 20.6716C27.1472 21.1221 27.2439 21.2286 27.546 21.4745C27.9831 21.7426 28.4397 21.9231 28.9019 22.0925C31.6018 23.0835 31.6018 23.0835 32.3233 24.7658C32.5496 25.7968 32.5303 27.0433 32.2007 28.021C31.6874 29.2087 30.9421 29.8225 29.9953 30.2412C28.7093 30.6759 27.1933 30.4791 26.0337 29.6187C25.1783 28.9207 24.5771 28.0111 24.3042 26.6827C24.3042 26.4154 24.3042 26.148 24.3042 25.8726C25.1488 25.8726 25.9934 25.8726 26.8635 25.8726C26.948 26.1781 27.0324 26.4837 27.1194 26.7985C27.5548 27.4023 27.9521 27.6146 28.5644 27.6448C29.0327 27.6314 29.3864 27.4955 29.7534 27.0806C29.962 26.7189 29.9739 26.4407 29.9346 25.9883C29.6416 25.5101 29.3881 25.3087 28.9536 25.1275C28.8994 25.1043 28.8452 25.0811 28.7894 25.0572C28.4536 24.9157 28.1152 24.7875 27.7762 24.6605C25.3574 23.7534 25.3574 23.7534 24.7361 22.3643C24.4063 21.3849 24.4306 20.0916 24.6988 19.0874C25.1022 17.9663 25.753 17.3591 26.5862 16.8739C28.1195 16.175 30.0285 16.329 31.2996 17.7709Z" fill="white"/>
<path d="M55.3526 12.3312C56.1971 12.3312 57.0417 12.3312 57.9118 12.3312C57.9118 18.213 57.9118 24.0949 57.9118 30.1549C57.0673 30.1549 56.2227 30.1549 55.3526 30.1549C55.3526 24.2731 55.3526 18.3913 55.3526 12.3312Z" fill="white"/>
<path d="M19.866 16.7292C20.7106 16.7292 21.5552 16.7292 22.4253 16.7292C22.4253 21.1597 22.4253 25.5902 22.4253 30.1549C21.5808 30.1549 20.7362 30.1549 19.866 30.1549C19.866 25.7244 19.866 21.294 19.866 16.7292Z" fill="white"/>
<path d="M21.957 11.3999C22.2927 11.6659 22.5412 11.9445 22.6811 12.447C22.7865 13.0979 22.818 13.7015 22.6121 14.3191C22.3619 14.8389 22.0412 15.1498 21.5987 15.3051C21.0957 15.3942 20.6416 15.3742 20.2071 14.9932C19.8053 14.4886 19.6007 14.0472 19.578 13.2933C19.5842 12.6468 19.7189 12.2308 20.0365 11.7525C20.5711 11.1482 21.3052 11.0644 21.957 11.3999Z" fill="white"/>
<path d="M150.588 17.6025C151.077 18.1179 151.432 18.748 151.708 19.4977C151.742 19.4249 151.776 19.3521 151.812 19.2771C152.432 18.0095 153.145 17.1275 154.249 16.7679C155.372 16.4833 156.51 16.6872 157.488 17.494C158.318 18.3119 158.831 19.3397 159.014 20.7179C159.119 21.8467 159.153 22.9505 159.147 24.0874C159.146 24.2638 159.146 24.4402 159.146 24.6166C159.145 25.074 159.144 25.5314 159.142 25.9888C159.14 26.4583 159.139 26.9278 159.138 27.3972C159.136 28.3134 159.133 29.2295 159.13 30.1456C158.679 30.1456 158.229 30.1456 157.765 30.1456C157.764 29.8899 157.763 29.6342 157.763 29.3708C157.76 28.5212 157.755 27.6717 157.749 26.8222C157.746 26.3077 157.743 25.7932 157.742 25.2786C157.741 24.7811 157.738 24.2836 157.734 23.786C157.732 23.5972 157.732 23.4084 157.732 23.2196C157.73 21.849 157.667 20.4578 156.993 19.3535C156.396 18.6248 155.658 18.3016 154.864 18.3403C154.106 18.4111 153.466 18.7419 152.918 19.4728C152.317 20.4684 152.129 21.7138 152.117 22.9716C152.116 23.0496 152.115 23.1276 152.114 23.2079C152.112 23.4634 152.11 23.7189 152.108 23.9744C152.106 24.1524 152.104 24.3305 152.102 24.5085C152.098 24.9755 152.093 25.4424 152.089 25.9093C152.085 26.3865 152.08 26.8636 152.075 27.3407C152.066 28.2757 152.058 29.2106 152.049 30.1456C151.627 30.1456 151.205 30.1456 150.77 30.1456C150.768 29.9045 150.767 29.6635 150.766 29.4151C150.762 28.6132 150.756 27.8112 150.75 27.0093C150.746 26.5237 150.742 26.0381 150.74 25.5525C150.738 25.0827 150.734 24.613 150.73 24.1432C150.729 23.9652 150.728 23.7871 150.727 23.6091C150.722 22.1083 150.693 20.5554 149.917 19.3819C149.286 18.5896 148.633 18.3544 147.784 18.3403C146.907 18.4507 146.282 18.8863 145.71 19.7897C144.961 21.075 145.041 22.8171 145.027 24.37C145.025 24.5372 145.023 24.7043 145.022 24.8715C145.017 25.3082 145.013 25.7448 145.009 26.1815C145.004 26.6284 144.999 27.0753 144.995 27.5223C144.986 28.3967 144.977 29.2711 144.969 30.1456C144.546 30.1456 144.124 30.1456 143.689 30.1456C143.689 25.7915 143.689 21.4374 143.689 16.9514C144.111 16.9514 144.534 16.9514 144.969 16.9514C144.997 17.5625 145.025 18.1736 145.054 18.8032C145.107 18.6863 145.159 18.5693 145.214 18.4488C146.406 16.2102 149.012 16.1714 150.588 17.6025Z" fill="white"/>
<path d="M134.481 17.7616C134.863 18.2208 135.221 18.6886 135.505 19.2662C135.533 18.5023 135.561 17.7384 135.59 16.9514C136.012 16.9514 136.435 16.9514 136.87 16.9514C136.87 21.3055 136.87 25.6595 136.87 30.1456C136.447 30.1456 136.025 30.1456 135.59 30.1456C135.548 28.9425 135.548 28.9425 135.505 27.7151C135.336 28.0206 135.167 28.3262 134.993 28.641C134.211 29.8277 133.116 30.2788 131.979 30.3978C130.773 30.4508 129.625 29.9665 128.707 28.8987C127.639 27.506 127.159 25.8149 127.114 23.8161C127.101 21.8253 127.463 19.8855 128.477 18.3909C130.059 16.4387 132.712 16.0326 134.481 17.7616ZM129.378 19.8159C128.534 21.2315 128.402 22.8339 128.509 24.5901C128.677 25.8966 129.112 27.0539 129.885 27.8814C130.711 28.6271 131.619 28.9166 132.604 28.7567C133.533 28.4802 134.37 27.8772 134.908 26.7892C135.619 25.1518 135.767 23.5449 135.417 21.7007C135.295 21.183 135.137 20.7523 134.908 20.3078C134.84 20.1758 134.84 20.1758 134.77 20.0411C134.279 19.1957 133.484 18.515 132.689 18.3403C131.424 18.2352 130.282 18.5032 129.378 19.8159Z" fill="white"/>
<path d="M115.566 13.0814C115.717 13.0829 115.717 13.0829 115.872 13.0843C117.531 13.1276 118.946 13.8473 120.151 15.4468C120.609 16.1712 121.26 17.2273 121.26 18.2245C120.19 18.3615 120.19 18.3615 119.725 18.2245C119.445 17.9013 119.351 17.521 119.213 17.0671C118.647 15.9412 117.792 15.2759 116.831 14.9445C115.466 14.5983 114.092 14.8092 112.918 15.846C112.856 15.9053 112.794 15.9645 112.73 16.0255C112.675 16.0764 112.621 16.1273 112.565 16.1797C111.704 17.0792 111.137 18.7498 110.962 20.1839C110.815 22.3396 110.946 24.3787 111.876 26.2105C112.667 27.4885 113.628 28.3128 114.862 28.5252C116.311 28.6491 117.558 28.3811 118.723 27.1147C119.155 26.575 119.463 25.8783 119.725 25.1688C120.232 25.1688 120.738 25.1688 121.26 25.1688C121.078 26.4034 120.539 27.3023 119.896 28.178C119.817 28.2888 119.817 28.2888 119.737 28.4018C119.022 29.3339 118.041 29.8808 117.08 30.1455C117.007 30.1667 116.933 30.1879 116.857 30.2097C114.969 30.5473 113.201 30.1164 111.669 28.5469C110.596 27.2865 109.845 25.559 109.573 23.6642C109.558 23.5631 109.542 23.4619 109.526 23.3577C109.278 20.845 109.596 18.3529 110.682 16.257C111.917 14.0985 113.572 13.0568 115.566 13.0814Z" fill="white"/>
<path d="M92.0197 13.0814C92.1207 13.0823 92.2217 13.0832 92.3258 13.0841C94.0266 13.1274 95.4596 13.9591 96.6477 15.6204C97.0374 16.2236 97.7088 17.3834 97.7088 18.2245C96.6546 18.3896 96.6546 18.3896 96.1732 18.2245C95.846 17.8308 95.688 17.3587 95.4907 16.8357C94.8977 15.7635 93.8969 15.0835 92.9314 14.8681C91.3672 14.6826 90.0485 14.9616 88.8153 16.3587C87.9137 17.5054 87.3848 19.2073 87.3057 20.8802C87.3042 20.9587 87.3026 21.0371 87.301 21.118C87.2977 21.206 87.2944 21.294 87.291 21.3847C87.2492 23.3579 87.684 25.3877 88.6713 26.876C89.7158 28.1722 90.989 28.6269 92.3736 28.565C93.5734 28.4684 94.598 27.84 95.4424 26.6784C95.5881 26.4382 95.5881 26.4382 95.691 26.1078C95.8298 25.7156 95.931 25.4575 96.1732 25.1688C96.6744 25.0076 97.202 25.0968 97.7088 25.1688C97.3138 26.8629 96.5259 28.2677 95.3891 29.1668C93.7102 30.3484 91.8179 30.6716 89.9896 29.9444C88.3245 29.1336 87.1488 27.615 86.384 25.4654C86.0583 24.445 85.8931 23.3833 85.8508 22.2754C85.8473 22.1869 85.8437 22.0984 85.8401 22.0073C85.7933 19.5956 86.3518 17.3453 87.514 15.5124C88.7379 13.8105 90.2929 13.0603 92.0197 13.0814Z" fill="#C49E4A"/>
<path d="M76.4672 13.2478C82.3999 13.2478 82.3999 13.2478 83.5798 14.7235C84.2977 15.7712 84.5295 17.0442 84.5072 18.4429C84.4316 19.7406 84.1066 20.8842 83.4039 21.7907C82.5554 22.7222 81.5551 23.01 80.4897 22.9924C80.4217 22.9922 80.3537 22.9919 80.2837 22.9917C80.0335 22.9905 79.7832 22.9873 79.533 22.9843C78.9717 22.9795 78.4104 22.9747 77.8321 22.9698C77.8321 25.3378 77.8321 27.7058 77.8321 30.1456C77.3817 30.1456 76.9313 30.1456 76.4672 30.1456C76.4672 24.5693 76.4672 18.993 76.4672 13.2478ZM77.8321 14.7524C77.8321 16.9676 77.8321 19.1828 77.8321 21.4652C78.3459 21.4748 78.8597 21.4843 79.389 21.4941C79.549 21.4984 79.7089 21.5026 79.8736 21.5069C80.8408 21.5218 81.834 21.4777 82.5755 20.5135C83.0822 19.6397 83.1791 18.6057 83.1213 17.5301C82.9964 16.6095 82.74 15.9047 82.2096 15.3022C81.2986 14.6493 80.4037 14.711 79.3997 14.7307C78.6238 14.7414 78.6238 14.7414 77.8321 14.7524Z" fill="#C49E4A"/>
<path d="M100.102 13.2478C106.053 13.2478 106.053 13.2478 107.191 14.7411C107.971 15.9086 108.098 17.2095 108.066 18.7354C108.014 19.984 107.586 20.9942 106.929 21.8508C105.821 23.0832 104.416 23.0161 103.066 22.9915C102.232 22.9808 102.232 22.9808 101.381 22.9698C101.381 25.3378 101.381 27.7058 101.381 30.1456C100.959 30.1456 100.537 30.1456 100.102 30.1456C100.102 24.5693 100.102 18.993 100.102 13.2478ZM101.381 14.7524C101.381 16.9676 101.381 19.1828 101.381 21.4652C101.899 21.4724 102.416 21.4795 102.949 21.4869C103.11 21.4901 103.272 21.4932 103.438 21.4965C104.373 21.5072 105.228 21.4944 105.988 20.655C106.519 19.9007 106.719 19.2075 106.708 18.1884C106.707 18.102 106.706 18.0156 106.705 17.9267C106.686 17.1013 106.587 16.4237 106.176 15.7882C105.493 14.9202 104.78 14.7332 103.872 14.7411C103.809 14.7412 103.746 14.7413 103.68 14.7414C103.445 14.7421 103.21 14.7437 102.976 14.7452C102.449 14.7476 101.923 14.7499 101.381 14.7524Z" fill="#C49E4A"/>
<path d="M167.407 17.7616C168.013 18.468 168.277 19.2497 168.43 20.3079C168.43 20.4988 168.43 20.6898 168.43 20.8866C167.98 20.8866 167.529 20.8866 167.065 20.8866C167.039 20.6574 167.039 20.6574 167.012 20.4236C166.895 19.7234 166.656 19.1614 166.207 18.7626C165.519 18.285 164.804 18.1992 164.041 18.3937C163.622 18.5837 163.239 18.9027 162.97 19.382C162.797 19.9487 162.769 20.3895 162.89 20.9806C163.543 22.4362 164.948 22.7076 166.083 23.1455C167.057 23.5382 167.856 24.0883 168.372 25.3208C168.558 26.3086 168.587 27.298 168.24 28.2264C167.683 29.4335 166.953 30.0024 165.931 30.3228C165.77 30.3543 165.607 30.3661 165.444 30.3771C165.39 30.3829 165.336 30.3887 165.28 30.3947C164.138 30.4676 162.984 30.0464 162.091 29.075C161.628 28.4931 161.332 27.7333 161.179 26.9049C161.179 26.714 161.179 26.523 161.179 26.3263C161.629 26.3263 162.08 26.3263 162.544 26.3263C162.577 26.4838 162.611 26.6413 162.645 26.8037C162.847 27.604 163.107 28.0019 163.653 28.3878C164.381 28.8648 165.267 28.9364 166.042 28.6121C166.517 28.3592 166.851 28.0072 167.065 27.3679C167.181 26.6728 167.176 26.2631 166.895 25.6318C166.281 24.8375 165.381 24.6165 164.585 24.304C162.277 23.3946 162.277 23.3946 161.752 22.2732C161.395 21.3408 161.314 20.3423 161.515 19.3169C161.823 18.2366 162.47 17.5413 163.229 17.0808C164.584 16.3892 166.244 16.535 167.407 17.7616Z" fill="white"/>
<path d="M123.644 12.322C124.095 12.322 124.545 12.322 125.009 12.322C125.009 18.2038 125.009 24.0856 125.009 30.1456C124.559 30.1456 124.108 30.1456 123.644 30.1456C123.644 24.2638 123.644 18.382 123.644 12.322Z" fill="white"/>
<path d="M139.678 16.9515C140.1 16.9515 140.523 16.9515 140.958 16.9515C140.958 21.3055 140.958 25.6596 140.958 30.1456C140.535 30.1456 140.113 30.1456 139.678 30.1456C139.678 25.7915 139.678 21.4375 139.678 16.9515Z" fill="white"/>
<path d="M140.794 12.0905C141.004 12.3105 141.104 12.4677 141.221 12.785C141.267 13.3066 141.272 13.7051 141.077 14.1666C140.766 14.5427 140.573 14.6397 140.155 14.6295C139.784 14.4949 139.651 14.3671 139.43 13.9423C139.323 13.4483 139.301 13.0501 139.44 12.5679C139.845 11.9462 140.219 11.8715 140.794 12.0905Z" fill="white"/>
</svg>
